<svg width="48" height="48" viewBox="0 0 48 48" fill="none" xmlns="http://www.w3.org/2000/svg">
<g clip-path="url(#clip0)">
<path d="M45.4004 45.6537H43.7197V43.529H45.4002C46.048 43.529 46.5732 43.0039 46.5732 42.3561C46.5732 35.8115 41.5517 30.4175 35.1597 29.8238V27.7957C35.1597 27.1479 34.6345 26.6228 33.9867 26.6228C33.3389 26.6228 32.8138 27.1479 32.8138 27.7957V29.8238C26.4216 30.4175 21.4003 35.8115 21.4003 42.3561C21.4003 43.0039 21.9254 43.529 22.5732 43.529H24.2537V45.6537H22.5732C21.9254 45.6537 21.4003 46.1788 21.4003 46.8267C21.4003 47.4745 21.9254 47.9996 22.5732 47.9996H25.4036C25.4189 48 25.4343 48 25.4497 47.9996H42.5238C42.5314 47.9998 42.5391 47.9999 42.5467 47.9999C42.5544 47.9999 42.5621 47.9999 42.5697 47.9996H45.4004C46.0483 47.9996 46.5734 47.4745 46.5734 46.8267C46.5734 46.1788 46.0482 45.6537 45.4004 45.6537ZM41.3737 45.6537H26.5994V43.529H41.3737V45.6537ZM23.8128 41.1832C24.3967 36.0871 28.7367 32.1156 33.9866 32.1156C39.2365 32.1156 43.5765 36.0871 44.1604 41.1832H23.8128V41.1832ZM15.4396 11.4136C11.9931 11.4136 9.29332 13.3852 9.29332 15.9022C9.29332 18.419 11.9931 20.3905 15.4396 20.3905C18.8861 20.3905 21.5858 18.419 21.5858 15.9022C21.5858 13.3851 18.8861 11.4136 15.4396 11.4136V11.4136ZM15.4396 18.0445C13.2 18.0445 11.6392 16.9155 11.6392 15.902C11.6392 14.8886 13.2 13.7594 15.4396 13.7594C17.6792 13.7594 19.2399 14.8886 19.2399 15.902C19.2399 16.9154 17.6792 18.0445 15.4396 18.0445V18.0445ZM18.2023 45.654H3.77243V8.05259H27.1068V27.5847C27.1068 28.2326 27.632 28.7577 28.2798 28.7577C28.9276 28.7577 29.4528 28.2326 29.4528 27.5847V6.87963C29.4528 6.23181 28.9276 5.70667 28.2798 5.70667H27.7284V1.17295C27.7284 0.837716 27.5849 0.518436 27.3343 0.295808C27.0836 0.0732976 26.7497 -0.0313305 26.4168 0.0081983L2.46071 2.86166C1.87071 2.93192 1.42651 3.43219 1.42651 4.02641V46.8269C1.42651 47.4747 1.95165 47.9999 2.59947 47.9999H18.2023C18.8501 47.9999 19.3753 47.4747 19.3753 46.8269C19.3753 46.1791 18.8501 45.654 18.2023 45.654ZM3.77243 5.06788L25.3825 2.49394V5.70679H3.77243V5.06788V5.06788ZM13.4643 42.2932C12.8164 42.2932 12.2913 41.768 12.2913 41.1202C12.2913 40.4724 12.8164 39.9473 13.4643 39.9473H17.4149C18.0627 39.9473 18.5879 40.4724 18.5879 41.1202C18.5879 41.768 18.0627 42.2932 17.4149 42.2932H13.4643V42.2932Z" fill="white"/>
</g>
<defs>
<clipPath id="clip0">
<rect width="48" height="48" fill="white"/>
</clipPath>
</defs>
</svg>
