<svg width="30" height="30" viewBox="0 0 30 30" fill="none" xmlns="http://www.w3.org/2000/svg">
<path d="M28.5 28.5H1.5C0.6 28.5 0 27.9 0 27V19.5H3V25.5H27V19.5H30V27C30 27.9 29.4 28.5 28.5 28.5Z" fill="#F6F6F6"/>
<path d="M23.55 10.95C22.95 10.35 22.05 10.35 21.45 10.95L16.5 15.9V3C16.5 2.1 15.9 1.5 15 1.5C14.1 1.5 13.5 2.1 13.5 3V15.9L8.55 10.95C7.95 10.35 7.05 10.35 6.45 10.95C5.85 11.55 5.85 12.45 6.45 13.05L13.95 20.55C14.55 21.15 15.45 21.15 16.05 20.55L23.55 13.05C24.15 12.45 24.15 11.55 23.55 10.95Z" fill="#F6F6F6"/>
</svg>
