<svg width="572" height="257" viewBox="0 0 572 257" fill="none" xmlns="http://www.w3.org/2000/svg">
<path d="M157.523 209.32C172.99 206.227 185.63 198.6 195.443 186.44C205.363 174.173 210.323 160.093 210.323 144.2C210.323 141.96 210.003 138.333 209.363 133.32C209.043 130.973 208.776 128.947 208.563 127.24C208.456 125.427 208.456 123.827 208.563 122.44C208.563 121.8 208.99 119.88 209.843 116.68C210.483 114.333 210.643 112.573 210.323 111.4L209.523 108.84C207.39 111.933 206.27 116.467 206.163 122.44C206.163 125.107 206.536 128.627 207.283 133C207.71 135.24 208.03 137.213 208.243 138.92C208.456 140.627 208.563 142.067 208.563 143.24C208.456 162.44 201.523 178.227 187.763 190.6C198.323 175.24 203.603 160.68 203.603 146.92C203.603 126.867 197.95 110.067 186.643 96.52C185.15 94.7067 184.403 93.3733 184.403 92.52C184.403 91.88 184.616 91.3467 185.043 90.92C185.47 90.3867 185.95 89.9067 186.483 89.48C187.016 89.0533 187.496 88.5733 187.923 88.04C188.35 87.5067 188.563 86.8667 188.563 86.12C188.563 81.8533 187.07 78.7067 184.083 76.68C183.976 77.2133 183.816 77.6933 183.603 78.12C183.39 78.5467 183.176 79.0267 182.963 79.56C182.003 81.3733 181.203 82.28 180.563 82.28C179.71 82.28 179.283 80.84 179.283 77.96C179.283 77.4267 179.603 76.8933 180.243 76.36C181.736 74.8667 182.536 73.8 182.643 73.16C182.75 72.7333 182.323 72.36 181.363 72.04C178.59 72.68 177.203 74.3333 177.203 77C177.203 81.2667 178.643 86.0133 181.523 91.24C172.456 82.28 161.15 76.2 147.603 73C147.496 72.7867 147.443 72.2 147.443 71.24C147.443 67.5067 146.643 65.8533 145.043 66.28C143.443 66.92 142.163 68.7333 141.203 71.72C135.55 70.76 129.63 70.28 123.443 70.28C123.23 70.28 122.376 70.3867 120.883 70.6C119.496 70.7067 117.416 70.9733 114.643 71.4L91.6031 74.44C87.6565 74.9733 83.7098 75.4 79.7631 75.72C75.9231 75.9333 72.0831 76.0933 68.2431 76.2C60.3498 76.3067 53.0965 74.12 46.4831 69.64C38.5898 64.2 34.5365 56.68 34.3231 47.08C34.2165 40.7867 35.8698 35.24 39.2831 30.44C43.2298 24.8933 48.8831 22.0133 56.2431 21.8C57.9498 21.8 59.7098 22.0667 61.5231 22.6C63.3365 23.0267 65.0965 23.72 66.8031 24.68C68.5098 25.64 70.0565 26.76 71.4431 28.04C72.9365 29.32 74.1631 30.7067 75.1231 32.2C72.3498 33.0533 70.0565 35.1867 68.2431 38.6C66.4298 42.12 65.5765 45.3733 65.6831 48.36C65.6831 50.6 66.3231 52.52 67.6031 54.12C67.0698 54.2267 66.5898 54.3333 66.1631 54.44C65.7365 54.44 65.3098 54.44 64.8831 54.44C63.0698 54.44 61.6298 53.64 60.5631 52.04C60.4565 51.8267 60.2431 51.3467 59.9231 50.6C59.6031 49.8533 59.0698 48.7333 58.3231 47.24C55.9765 42.3333 52.7231 39.72 48.5631 39.4L47.6031 41.8C49.5231 41.8 51.0698 42.5467 52.2431 44.04C52.4565 44.2533 52.7231 44.7867 53.0431 45.64C53.4698 46.3867 54.0565 47.4533 54.8031 48.84C57.1498 53.64 60.8298 56.04 65.8431 56.04C66.8031 56.04 67.7631 55.88 68.7231 55.56C71.8165 58.6533 76.4565 61.2667 82.6431 63.4C88.4031 65.2133 93.6831 66.12 98.4831 66.12C103.283 66.12 110.323 65.16 119.603 63.24C128.883 61.32 135.923 60.36 140.723 60.36C164.83 60.36 184.403 68.2533 199.443 84.04C212.883 98.3333 219.603 115.293 219.603 134.92C219.603 153.693 214.003 171.24 202.803 187.56C190.216 205.907 174.376 215.08 155.283 215.08C140.99 215.08 127.87 211.187 115.923 203.4C117.416 199.56 118.163 196.307 118.163 193.64C117.95 180.733 108.83 169.053 90.8031 158.6C93.7898 159.56 96.6165 160.04 99.2831 160.04C107.283 160.04 114.323 157 120.403 150.92C126.163 145.16 129.043 139.133 129.043 132.84C129.043 126.013 127.39 120.147 124.083 115.24C120.136 109.373 114.323 106.44 106.643 106.44C105.576 105.373 105.256 103.987 105.683 102.28C106.003 100.573 106.696 98.8667 107.763 97.16C109.896 93.5333 111.976 91.0267 114.003 89.64L111.443 87.88C106.43 92.36 103.923 97.5867 103.923 103.56C103.923 104.627 104.083 105.64 104.403 106.6C102.696 106.92 100.883 107.507 98.9631 108.36C92.2431 111.453 88.8831 115.773 88.8831 121.32C88.8831 125.48 91.2831 128.733 96.0831 131.08L99.9231 132.52C102.056 133.373 103.123 133.907 103.123 134.12C103.123 134.333 103.016 134.76 102.803 135.4C102.59 135.933 102.376 136.093 102.163 135.88L103.923 137.32C104.99 136.573 105.523 135.453 105.523 133.96C105.523 132.467 104.776 131.24 103.283 130.28C101.79 129.213 100.19 128.68 98.4831 128.68C96.7765 128.68 95.1231 127.933 93.5231 126.44C92.0298 124.84 91.2831 123.133 91.2831 121.32C91.2831 118.12 92.7765 115.187 95.7631 112.52C98.3231 110.28 101.363 108.893 104.883 108.36C105.843 110.813 107.283 113.267 109.203 115.72L114.963 122.76C119.87 128.627 122.323 133.693 122.323 137.96C122.323 143.507 119.71 148.093 114.483 151.72C110.536 154.387 105.363 156.307 98.9631 157.48C98.0031 157.48 97.4165 157.427 97.2031 157.32C108.936 154.44 114.803 149.373 114.803 142.12C114.803 137.853 113.256 135.72 110.163 135.72C109.736 135.72 109.256 136.04 108.723 136.68C108.296 137.213 108.083 137.693 108.083 138.12C108.083 140.467 108.67 141.64 109.843 141.64C110.163 141.64 110.536 141.373 110.963 140.84C111.496 140.2 111.923 139.88 112.243 139.88C112.883 139.88 113.203 140.36 113.203 141.32C113.203 143.56 112.883 144.947 112.243 145.48C111.71 145.907 110.323 146.013 108.083 145.8C107.123 146.653 106.376 147.72 105.843 149C105.31 150.387 104.883 151.453 104.563 152.2C104.243 152.84 104.083 153.16 104.083 153.16C103.976 153.053 103.923 152.04 103.923 150.12C103.923 148.2 102.003 147.24 98.1631 147.24C94.2165 147.24 92.2431 148.733 92.2431 151.72C92.2431 152.467 92.5631 153.053 93.2031 153.48C93.7365 154.013 94.2165 154.493 94.6431 154.92C95.0698 155.24 95.4431 155.56 95.7631 155.88C95.8698 156.2 95.4965 156.52 94.6431 156.84C92.1898 155.987 90.0565 155.293 88.2431 154.76C86.4298 154.12 84.9365 153.533 83.7631 153C83.5498 151.507 83.3365 149.853 83.1231 148.04C83.0165 146.12 82.9631 143.987 82.9631 141.64C82.9631 127.56 85.2565 115.88 89.8431 106.6C95.7098 94.3333 105.15 86.1733 118.163 82.12C118.376 81.2667 117.79 80.4133 116.403 79.56C103.923 82.0133 93.4165 87.3467 84.8831 95.56C76.3498 103.773 70.3765 114.173 66.9631 126.76C66.4298 124.84 66.1631 122.813 66.1631 120.68C66.3765 113.96 68.6698 107.187 73.0431 100.36C75.0698 97.2667 77.2565 94.3867 79.6031 91.72C82.0565 88.9467 84.7765 86.4933 87.7631 84.36C91.0698 82.44 94.7498 80.52 98.8031 78.6C104.35 75.9333 112.19 74.0133 122.323 72.84H123.123C129.416 72.84 135.283 73.32 140.723 74.28V75.4C140.723 78.3867 141.576 81.1067 143.283 83.56C144.99 86.0133 145.843 88.1467 145.843 89.96C145.843 90.92 145.79 91.5067 145.683 91.72C143.55 91.2933 141.523 91.0267 139.603 90.92C137.683 90.7067 135.923 90.6 134.323 90.6C133.47 90.6 132.616 90.6533 131.763 90.76C130.91 90.76 130.056 90.8133 129.203 90.92C121.843 92.0933 118.163 95.1867 118.163 100.2C118.163 104.36 119.816 106.44 123.123 106.44V103.08C122.056 101.693 121.523 100.467 121.523 99.4C121.523 98.3333 121.95 97.3733 122.803 96.52C123.763 95.56 124.936 94.76 126.323 94.12C127.816 93.48 129.523 93 131.443 92.68C133.363 92.36 135.336 92.2 137.363 92.2C138.43 92.2 139.603 92.3067 140.883 92.52C142.27 92.6267 143.763 92.7867 145.363 93C144.936 94.7067 143.923 96.52 142.323 98.44C140.83 100.253 139.39 101.96 138.003 103.56C134.27 108.467 132.403 114.28 132.403 121C132.403 125.053 133.256 128.733 134.963 132.04C137.096 136.093 140.616 140.68 145.523 145.8C149.576 149.96 153.683 154.067 157.843 158.12C163.816 164.733 166.803 171.133 166.803 177.32C166.803 181.267 165.096 185.267 161.683 189.32C158.376 193.267 154.483 195.24 150.003 195.24C148.51 195.24 146.803 194.973 144.883 194.44C138.27 192.627 134.963 188.36 134.963 181.64C134.963 179.613 135.763 176.573 137.363 172.52C139.07 168.68 139.923 165.587 139.923 163.24C139.923 158.12 137.15 154.547 131.603 152.52C131.603 152.52 131.496 152.627 131.283 152.84C131.283 153.267 131.763 154.013 132.723 155.08C134.216 157.213 134.963 158.6 134.963 159.24C134.963 159.773 134.536 160.787 133.683 162.28L130.643 166.76C127.87 171.133 126.483 174.653 126.483 177.32C126.483 183.507 128.776 188.52 133.363 192.36C137.63 195.88 143.016 197.64 149.523 197.64C157.416 197.64 164.243 194.227 170.003 187.4C175.123 181.213 177.683 174.333 177.683 166.76C177.683 157.8 174.536 149.427 168.243 141.64C164.403 137.907 160.99 134.653 158.003 131.88C155.123 129.107 152.616 126.867 150.483 125.16C144.19 119.507 140.936 114.493 140.723 110.12C140.616 107.56 141.523 104.733 143.443 101.64C144.296 100.253 145.15 98.92 146.003 97.64C146.856 96.36 147.71 95.08 148.563 93.8C163.923 97.8533 175.123 108.787 182.163 126.6C182.056 126.493 181.896 126.44 181.683 126.44C175.923 118.653 170.003 114.76 163.923 114.76C163.39 114.76 162.643 114.92 161.683 115.24C159.443 116.2 158.43 117.267 158.643 118.44C158.856 118.973 159.603 119.4 160.883 119.72C161.31 118.973 161.736 118.227 162.163 117.48C162.59 116.733 163.283 116.36 164.243 116.36C165.31 116.36 166.323 116.52 167.283 116.84C166.75 118.013 166.003 118.867 165.043 119.4C165.043 120.253 165.576 120.733 166.643 120.84C167.816 121.053 168.936 121.32 170.003 121.64C171.07 121.96 172.19 122.227 173.363 122.44C176.03 123.293 178.056 124.36 179.443 125.64C177.31 125.32 176.19 126.013 176.083 127.72C175.976 129.427 176.296 131.133 177.043 132.84C178.323 135.507 179.923 136.84 181.843 136.84C183.016 136.84 183.976 135.987 184.723 134.28C186.75 141 187.763 148.2 187.763 155.88C187.763 167.4 185.79 177.16 181.843 185.16C177.256 194.867 170.163 201.587 160.563 205.32C159.39 205.64 158.323 205.907 157.363 206.12C156.403 206.333 155.603 206.547 154.963 206.76L157.523 209.32ZM86.8031 82.12C83.7098 83.9333 81.0431 85.48 78.8031 86.76C76.5631 88.04 74.7498 89.1067 73.3631 89.96C65.1498 95.2933 59.7098 98.1733 57.0431 98.6C55.1231 98.92 53.2565 98.44 51.4431 97.16C50.2698 97.6933 49.8431 98.1733 50.1631 98.6C50.3765 99.24 50.9631 99.8267 51.9231 100.36C53.9498 101.533 55.9231 102.12 57.8431 102.12C59.5498 102.013 62.4298 100.627 66.4831 97.96C63.8165 100.947 61.4698 103.56 59.4431 105.8C57.5231 107.933 55.9231 109.747 54.6431 111.24C49.6298 115.827 43.8165 118.12 37.2031 118.12C32.5098 118.12 30.1631 117 30.1631 114.76C30.1631 113.48 31.2831 112.36 33.5231 111.4L30.1631 109.8C28.9898 111.613 28.4031 113.213 28.4031 114.6C28.4031 115.773 28.8298 116.893 29.6831 117.96C31.6031 120.307 34.2698 121.48 37.6831 121.48C44.0831 121.48 49.7365 119.507 54.6431 115.56C56.6698 113.96 60.8831 109.427 67.2831 101.96C64.2965 107.507 62.8031 113.747 62.8031 120.68C62.8031 126.76 63.6565 131.347 65.3631 134.44C65.1498 136.573 64.9365 138.493 64.7231 140.2C64.6165 141.907 64.5631 143.347 64.5631 144.52C64.5631 159.027 68.6698 172.147 76.8831 183.88C84.6698 194.867 95.4965 203.613 109.363 210.12C107.336 211.827 104.936 212.68 102.163 212.68C96.4031 212.68 91.3898 210.44 87.1231 205.96L86.3231 206.76C90.1631 211.773 95.0165 214.28 100.883 214.28C104.403 214.28 107.656 213.053 110.643 210.6C123.443 216.467 136.296 219.4 149.203 219.4C168.83 219.4 185.95 214.333 200.563 204.2C213.043 195.347 222.75 183.613 229.683 169C235.763 156.093 238.803 143.133 238.803 130.12C238.803 107.293 231.656 87.9867 217.363 72.2C200.936 54.1733 177.79 45.16 147.923 45.16C139.923 45.16 130.003 47.4533 118.163 52.04C106.003 56.52 95.7631 58.7067 87.4431 58.6C81.6831 58.3867 76.8298 56.7333 72.8831 53.64C76.5098 51.08 78.6965 47.24 79.4431 42.12C81.4698 43.08 83.5498 44.04 85.6831 45C87.9231 45.8533 90.1098 46.2267 92.2431 46.12C93.3098 46.12 94.5898 45.48 96.0831 44.2C99.4965 41.1067 101.256 38.12 101.363 35.24C101.47 33.8533 100.67 33 98.9631 32.68C98.5365 35.9867 97.0965 37.64 94.6431 37.64C92.2965 37.64 89.4698 36.84 86.1631 35.24C82.6431 33.5333 79.9231 32.52 78.0031 32.2C75.8698 28.36 72.2965 25.2667 67.2831 22.92C62.2698 20.36 57.4698 19.1333 52.8831 19.24C49.8965 19.3467 46.5898 20.68 42.9631 23.24C39.6565 25.5867 37.1498 28.1467 35.4431 30.92C32.4565 35.5067 30.9631 42.28 30.9631 51.24C30.9631 54.76 31.6565 57.96 33.0431 60.84C28.5631 58.8133 24.2965 57.8 20.2431 57.8C18.5365 57.8 16.8831 58.4933 15.2831 59.88C13.5765 61.16 12.7231 62.6533 12.7231 64.36C12.7231 66.1733 13.3098 67.08 14.4831 67.08C16.0831 67.08 16.8831 66.4933 16.8831 65.32C16.8831 65.4267 16.4031 64.5733 15.4431 62.76C15.1231 62.0133 16.1898 61.3733 18.6431 60.84C19.2831 62.3333 19.9231 63.1867 20.5631 63.4C21.3098 63.5067 22.0565 63.3467 22.8031 62.92L25.5231 61.64C26.4831 61.1067 27.5498 61.1067 28.7231 61.64L31.4431 62.6C30.2698 64.4133 29.6831 66.28 29.6831 68.2C29.6831 69.5867 30.0031 70.9733 30.6431 72.36C35.6565 71.8267 38.3765 70.4933 38.8031 68.36C46.6965 75.2933 58.2165 78.76 73.3631 78.76C74.7498 78.76 76.4031 78.7067 78.3231 78.6C80.3498 78.3867 82.6965 78.0667 85.3631 77.64C88.0298 77.2133 90.3765 76.9467 92.4031 76.84C94.4298 76.6267 96.1365 76.52 97.5231 76.52C96.2431 76.52 94.4298 77.2667 92.0831 78.76L91.2831 79.24C88.7231 81.0533 87.2298 82.0133 86.8031 82.12ZM68.7231 46.12C68.7231 44.6267 69.3098 43.4 70.4831 42.44C71.6565 41.48 72.9898 41 74.4831 41C76.0831 41 76.8831 41.5333 76.8831 42.6C76.8831 43.6667 76.5631 44.84 75.9231 46.12C74.4298 49.2133 72.9365 51.2933 71.4431 52.36C69.6298 50.2267 68.7231 48.1467 68.7231 46.12ZM127.443 133C127.443 137.587 125.63 142.173 122.003 146.76C123.39 144.413 124.083 141.693 124.083 138.6C124.083 133.267 121.95 127.933 117.683 122.6C114.696 118.76 112.35 115.667 110.643 113.32C108.936 110.867 107.87 109.16 107.443 108.2C112.563 108.413 117.256 111.293 121.523 116.84C125.47 122.067 127.443 127.453 127.443 133ZM84.8831 158.76C94.2698 162.92 101.683 167.933 107.123 173.8C104.99 176.787 103.923 178.547 103.923 179.08C103.923 181.107 104.83 182.547 106.643 183.4C107.496 183.08 108.243 182.6 108.883 181.96C109.95 180.68 110.643 180.04 110.963 180.04C111.283 180.04 111.443 180.947 111.443 182.76C111.443 184.253 110.91 185.747 109.843 187.24C108.776 188.627 107.55 189.32 106.163 189.32C104.99 189 104.51 188.733 104.723 188.52L103.123 190.12C104.403 190.76 105.79 191.08 107.283 191.08C111.443 191.08 113.31 188.147 112.883 182.28C114.696 186.227 115.603 190.067 115.603 193.8C115.603 196.36 115.176 199.187 114.323 202.28C98.8565 191.507 89.0431 177 84.8831 158.76ZM171.283 201.32C185.043 190.44 191.923 173.267 191.923 149.8C191.923 144.04 190.963 138.12 189.043 132.04C185.95 122.547 180.99 114.28 174.163 107.24C166.91 99.9867 158.59 95.08 149.203 92.52C150.803 89.64 151.603 87.1333 151.603 85C151.603 83.5067 150.59 80.52 148.563 76.04C164.99 80.3067 178.003 89.1067 187.603 102.44C195.923 113.96 200.403 127.56 201.043 143.24C201.256 148.787 200.883 153.8 199.923 158.28C197.79 168.413 191.603 180.84 181.363 195.56C178.27 197.693 174.91 199.613 171.283 201.32ZM142.643 190.44C143.816 191.933 145.47 192.68 147.603 192.68C156.99 192.68 161.683 187.72 161.683 177.8C161.683 173.64 160.083 169.213 156.883 164.52C156.03 163.24 154.803 161.693 153.203 159.88C151.71 158.067 149.79 155.987 147.443 153.64C144.99 151.187 142.91 149 141.203 147.08C139.496 145.16 138.216 143.613 137.363 142.44C134.056 137.853 132.136 133.32 131.603 128.84L130.803 129C131.763 138.813 136.936 148.093 146.323 156.84C151.336 161.533 154.43 164.68 155.603 166.28C158.59 170.227 160.083 174.28 160.083 178.44C160.083 182.6 158.323 185.853 154.803 188.2C156.616 186.067 157.523 183.933 157.523 181.8C157.523 180.733 157.203 179.667 156.563 178.6C155.923 177.427 155.123 176.413 154.163 175.56C153.203 174.6 152.136 173.853 150.963 173.32C149.79 172.787 148.67 172.52 147.603 172.52C145.683 172.52 144.83 173.16 145.043 174.44C145.15 175.4 145.736 175.88 146.803 175.88C147.23 175.88 147.71 175.773 148.243 175.56C148.776 175.24 149.203 175.08 149.523 175.08C152.296 175.08 154.216 176.573 155.283 179.56C153.47 178.387 152.243 177.96 151.603 178.28C150.856 178.6 150.483 179.24 150.483 180.2C150.483 182.547 151.763 184.733 154.323 186.76C153.15 189 151.283 190.12 148.723 190.12C146.91 190.12 145.363 189.853 144.083 189.32L142.643 190.44ZM114.003 218.44C119.123 223.56 126.803 227.347 137.043 229.8C137.896 230.013 139.23 230.28 141.043 230.6C142.856 230.92 145.203 231.347 148.083 231.88C150.43 232.307 152.51 232.733 154.323 233.16C156.136 233.587 157.736 234.013 159.123 234.44C165.63 236.467 168.99 240.253 169.203 245.8C169.31 248.573 167.55 250.813 163.923 252.52C161.15 253.907 158.11 254.6 154.803 254.6C152.563 254.6 150.376 254.227 148.243 253.48C143.443 251.667 140.776 249.373 140.243 246.6C139.923 245.213 140.67 243.933 142.483 242.76L141.683 241.16C139.976 243.187 139.123 245.053 139.123 246.76C139.123 249.533 141.043 251.88 144.883 253.8C148.19 255.4 151.603 256.2 155.123 256.2C159.07 256.2 162.75 255.4 166.163 253.8C170.536 251.88 172.67 249.16 172.563 245.64C172.456 241.373 170.75 238.227 167.443 236.2C166.27 235.453 164.776 234.76 162.963 234.12C161.15 233.587 159.016 233.053 156.563 232.52L140.243 229.16C137.256 228.413 134.43 227.56 131.763 226.6C129.203 225.64 126.856 224.52 124.723 223.24C126.11 223.987 127.55 224.627 129.043 225.16C130.643 225.8 132.35 226.387 134.163 226.92C143.123 229.16 150.536 230.12 156.403 229.8C158.536 229.693 160.51 229.587 162.323 229.48C164.136 229.48 165.79 229.427 167.283 229.32C186.376 228.893 202.483 226.227 215.603 221.32C217.096 220.573 218.643 219.88 220.243 219.24C221.843 218.6 223.39 217.96 224.883 217.32C229.256 215.293 232.243 214.28 233.843 214.28C234.696 214.28 236.616 214.547 239.603 215.08C242.376 215.72 243.763 216.307 243.763 216.84C243.763 217.48 243.496 218.013 242.963 218.44C242.43 218.867 242.163 219.293 242.163 219.72C242.163 221.107 242.963 221.8 244.563 221.8C246.27 221.8 247.123 220.147 247.123 216.84C247.123 214.067 243.283 212.68 235.603 212.68C233.363 212.68 230.803 213.213 227.923 214.28C225.576 215.133 223.763 215.72 222.483 216.04C221.31 216.467 220.616 216.733 220.403 216.84C227.55 212.787 233.63 208.68 238.643 204.52C244.936 198.867 248.083 194.387 248.083 191.08C248.083 190.227 247.71 189.48 246.963 188.84C246.323 188.093 245.576 187.72 244.723 187.72C244.083 187.72 243.763 188.627 243.763 190.44C243.763 191.08 244.083 191.72 244.723 192.36C245.363 193 245.63 193.64 245.523 194.28C245.523 194.92 244.563 196.2 242.643 198.12C238.376 202.387 231.816 207.133 222.963 212.36C206.43 222.173 187.816 227.293 167.123 227.72C154.216 227.827 143.763 226.867 135.763 224.84C138.323 225.587 141.31 225.96 144.723 225.96H153.363C179.176 225.96 201.896 215.827 221.523 195.56C225.576 191.4 229.203 187.027 232.403 182.44C235.603 177.853 238.43 173 240.883 167.88C246.216 156.573 248.883 145.693 248.883 135.24C248.883 107.08 241.15 82.5467 225.683 61.64C207.55 37.4267 182.59 24.52 150.803 22.92C148.243 20.5733 146.963 17.8533 146.963 14.76C146.963 12.4133 147.71 10.4933 149.203 9C150.696 7.4 152.616 6.6 154.963 6.6C156.99 6.6 159.016 7.29333 161.043 8.67998C163.176 9.95999 164.243 11.56 164.243 13.48C163.816 15.5067 163.283 16.4133 162.643 16.2L163.443 16.68C164.51 15.9333 165.043 14.8667 165.043 13.48C165.043 11.0267 163.976 9 161.843 7.4C159.816 5.8 157.523 5 154.963 5C152.403 5 150.163 6.01333 148.243 8.03999C146.43 10.0667 145.523 12.4133 145.523 15.08C145.523 16.36 145.843 17.3733 146.483 18.12C147.443 19.9333 147.923 21 147.923 21.32C147.923 22.1733 146.643 22.6 144.083 22.6C137.043 22.6 129.523 24.5733 121.523 28.52C113.096 32.68 108.883 37.2133 108.883 42.12C108.883 45.96 110.376 48.0933 113.363 48.52C114.323 48.7333 115.336 48.4667 116.403 47.72V46.12C115.55 46.44 114.856 46.6 114.323 46.6C111.87 46.6 110.643 45.32 110.643 42.76C110.643 37.96 115.283 33.5333 124.563 29.48C132.99 25.96 141.203 24.2 149.203 24.2H150.483C155.07 28.4667 162.856 33.16 173.843 38.28C174.376 38.4933 176.776 39.56 181.043 41.48C185.31 43.4 191.443 46.0667 199.443 49.48C217.256 57.16 230.643 72.2 239.603 94.6C243.55 104.2 245.523 115.613 245.523 128.84C245.523 139.827 243.336 151.08 238.963 162.6C231.71 181.16 220.563 195.88 205.523 206.76C189.63 218.6 172.136 224.307 153.043 223.88C140.456 223.56 127.976 221.213 115.603 216.84L114.003 218.44ZM231.443 75.72C227.39 69.64 222.75 64.2 217.523 59.4C212.51 54.4933 205.416 49.96 196.243 45.8C192.296 44.0933 188.403 42.44 184.563 40.84C180.723 39.1333 176.83 37.4267 172.883 35.72C163.176 31.24 156.35 27.4533 152.403 24.36C169.256 25 184.67 30.0133 198.643 39.4C212.083 48.2533 223.016 60.36 231.443 75.72ZM293.169 163.56C292.529 162.387 291.783 161.96 290.929 162.28C290.396 163.453 289.436 164.04 288.049 164.04C286.983 164.04 286.449 163.187 286.449 161.48C286.449 159.987 287.409 157.853 289.329 155.08L294.609 147.4C296.423 144.733 297.329 141.64 297.329 138.12C297.329 135.667 296.903 133.053 296.049 130.28C292.956 121.32 287.623 116.52 280.049 115.88C277.063 118.867 275.249 122.493 274.609 126.76C271.836 129.107 269.169 131.72 266.609 134.6C264.049 137.48 261.703 140.68 259.569 144.2C254.876 151.773 252.476 158.813 252.369 165.32C252.156 177.053 256.476 186.76 265.329 194.44C273.116 201.267 281.649 204.68 290.929 204.68C291.996 196.04 294.183 191.027 297.489 189.64C297.276 188.04 296.849 187.133 296.209 186.92C295.463 186.707 294.769 186.813 294.129 187.24C291.356 188.84 289.916 189.64 289.809 189.64C283.516 189.64 277.489 186.067 271.729 178.92C266.076 172.093 263.249 165.32 263.249 158.6C263.249 145.587 266.983 136.04 274.449 129.96V130.92C278.076 133.373 280.956 134.973 283.089 135.72C287.569 139.24 289.809 143.613 289.809 148.84C289.809 150.013 288.796 152.253 286.769 155.56C284.849 158.973 283.889 161.16 283.889 162.12C283.889 165 285.436 166.44 288.529 166.44C290.769 166.44 292.316 165.48 293.169 163.56ZM281.489 145.32C277.223 145.107 274.023 147.133 271.889 151.4C270.076 154.813 269.169 158.813 269.169 163.4C269.169 168.2 270.343 172.413 272.689 176.04C274.396 178.92 277.383 182.173 281.649 185.8C282.503 185.8 282.876 185.32 282.769 184.36C279.676 182.333 277.063 179.507 274.929 175.88C272.796 172.253 271.729 168.68 271.729 165.16C271.729 164.413 271.729 163.613 271.729 162.76C271.836 161.907 271.943 161.053 272.049 160.2C272.903 153.48 275.516 149.853 279.889 149.32C281.169 148.36 281.809 147.4 281.809 146.44C281.809 146.12 281.703 145.747 281.489 145.32ZM300.693 202.12C300.693 204.253 302.293 205.213 305.493 205C311.04 197.213 315.626 192.253 319.253 190.12C319.68 189.373 319.893 188.573 319.893 187.72C319.893 186.867 319.573 186.44 318.933 186.44C318.4 186.44 317.813 186.6 317.173 186.92C316.533 187.24 316.053 187.4 315.733 187.4C315.413 187.4 315.146 187.347 314.933 187.24V139.08C316.64 137.48 317.866 136.2 318.613 135.24C320.746 133.213 322.56 132.2 324.053 132.2C329.066 133.8 333.173 136.947 336.373 141.64C339.68 146.227 341.333 151.24 341.333 156.68C341.333 165.96 335.946 178.867 325.173 195.4C322.08 200.2 319.626 203.827 317.813 206.28C316.106 208.84 315.146 210.387 314.933 210.92C310.773 217.96 308.693 223.507 308.693 227.56C308.586 233.32 310.186 238.173 313.493 242.12C316.8 246.387 321.333 248.52 327.093 248.52C329.653 248.52 332.48 248.04 335.573 247.08C341.973 245.053 348.106 240.147 353.973 232.36C356.32 229.373 357.493 227.187 357.493 225.8C357.493 225.48 357.386 225.213 357.173 225C353.973 226.387 351.146 228.2 348.693 230.44L341.173 237.48C334.88 243.133 329.333 245.96 324.533 245.96C320.053 245.96 316.533 244.413 313.973 241.32C311.52 238.227 310.293 234.44 310.293 229.96C310.293 224.84 314.186 217.373 321.973 207.56C326.773 201.48 330.88 196.2 334.293 191.72C337.813 187.24 340.8 183.507 343.253 180.52C350.933 169.64 354.773 160.307 354.773 152.52C354.773 148.893 354.293 145.053 353.333 141C351.84 134.92 348.96 129.587 344.693 125C340.426 120.307 335.253 117.16 329.173 115.56C327.68 117.693 326.453 119.613 325.493 121.32C324.533 122.92 323.786 124.307 323.253 125.48C321.226 129.32 318.453 132.147 314.933 133.96V122.76C314.933 113.267 316.266 103.987 318.933 94.92C322.986 80.9467 329.013 73.96 337.013 73.96C343.093 73.96 346.133 75.7733 346.133 79.4C346.133 80.1467 345.92 80.9467 345.493 81.8C345.066 82.5467 344.586 83.4 344.053 84.36C343.52 85.2133 343.04 86.1733 342.613 87.24C342.186 88.2 341.973 89.2133 341.973 90.28C341.973 94.9733 344.266 97.32 348.853 97.32C351.2 97.32 353.386 96.9467 355.413 96.2C357.44 95.3467 358.453 94.44 358.453 93.48C358.453 93.2667 358.293 92.8933 357.973 92.36C355.946 93.96 353.92 94.8133 351.893 94.92C350.293 95.1333 349.493 94.6533 349.493 93.48C349.493 92.3067 349.813 90.92 350.453 89.32C352.693 84.0933 353.813 81.48 353.813 81.48C353.813 78.28 352.16 75.72 348.853 73.8C346.08 72.2 342.986 71.4 339.573 71.4C332.853 71.4 326.24 74.3333 319.733 80.2C313.013 86.28 309.28 92.2533 308.533 98.12C307.04 94.28 305.013 90.92 302.453 88.04C299.253 84.3067 296 82.2267 292.693 81.8L292.053 83.08C297.813 86.92 300.693 93.5333 300.693 102.92V202.12ZM316.853 125C317.173 125.32 317.493 125.48 317.813 125.48C318.026 125.48 318.186 125.427 318.293 125.32C318.72 112.84 320.16 103.24 322.613 96.52C325.493 88.0933 329.706 83.88 335.253 83.88C335.893 83.24 336.213 82.6533 336.213 82.12C336.213 81.6933 335.946 81.2133 335.413 80.68C329.973 80.68 325.653 83.88 322.453 90.28C318.826 97.64 316.96 109.213 316.853 125ZM332.533 147.56C332.64 146.493 332.16 145.64 331.093 145C320.533 145 315.84 157.107 317.013 181.32C317.44 182.28 317.706 182.76 317.813 182.76C317.706 181.693 317.653 180.68 317.653 179.72C317.653 178.653 317.653 177.64 317.653 176.68C317.653 175.613 317.653 174.6 317.653 173.64C317.653 172.573 317.706 171.56 317.813 170.6C318.666 157.267 323.573 149.587 332.533 147.56ZM336.213 223.88C338.026 223.347 338.826 222.653 338.613 221.8C338.4 220.84 337.866 219.987 337.013 219.24C334.56 217 332.053 215.88 329.493 215.88C323.626 215.88 319.733 219.08 317.813 225.48C317.92 225.8 318.186 225.96 318.613 225.96C320.533 221.48 324.106 219.24 329.333 219.24C332.426 219.24 334.72 220.787 336.213 223.88ZM405.108 194.44C410.441 190.067 414.281 186.44 416.628 183.56C420.575 178.867 422.601 174.067 422.708 169.16C422.921 163.08 420.948 158.387 416.788 155.08C413.375 152.307 408.735 150.92 402.868 150.92C402.335 150.92 401.588 150.76 400.628 150.44C399.668 150.12 398.975 149.907 398.548 149.8C397.695 149.693 397.161 149.747 396.948 149.96C396.735 150.173 396.735 150.707 396.948 151.56C392.041 152.733 387.668 154.92 383.828 158.12C379.028 153.96 376.628 148.467 376.628 141.64C376.628 136.84 378.815 132.52 383.188 128.68C387.135 130.92 391.241 132.04 395.508 132.04C402.975 132.04 409.535 127.72 415.188 119.08C415.508 117.48 414.921 116.52 413.428 116.2C409.695 119.613 406.495 121.32 403.828 121.32C403.615 121.32 401.535 120.52 397.588 118.92C394.921 117.853 393.108 117.213 392.148 117C389.801 120.733 386.335 123.667 381.748 125.8C369.375 131.453 363.188 140.84 363.188 153.96C363.188 158.227 365.481 162.013 370.068 165.32C374.761 168.733 377.268 170.44 377.588 170.44C378.015 170.44 378.388 170.28 378.708 169.96C378.921 170.067 379.615 170.12 380.788 170.12C382.495 170.12 384.308 169.853 386.228 169.32C388.148 168.787 389.961 168.04 391.668 167.08C393.375 166.12 394.921 165 396.308 163.72C397.695 162.44 398.815 161.053 399.668 159.56C405.001 163.613 407.668 170.173 407.668 179.24C407.668 184.893 406.388 189.053 403.828 191.72C402.015 189.8 399.188 188.093 395.348 186.6C391.508 185.107 388.255 184.36 385.588 184.36C382.921 184.36 380.521 184.893 378.388 185.96C373.268 188.307 367.615 193.64 361.428 201.96C361.641 203.133 362.495 203.72 363.988 203.72C366.868 199.24 370.975 197 376.308 197C384.735 197 390.975 199.24 395.028 203.72C395.881 204.573 397.001 204.84 398.388 204.52C399.135 200.893 401.375 197.533 405.108 194.44ZM390.708 161C388.895 161 387.188 160.52 385.588 159.56C387.721 157.747 389.961 156.84 392.308 156.84C394.121 156.84 395.401 157.053 396.148 157.48C394.868 159.827 393.055 161 390.708 161ZM393.268 137C394.335 136.573 394.868 136.093 394.868 135.56C394.655 134.067 392.735 133.32 389.108 133.32C388.148 133.32 386.975 133.747 385.588 134.6C382.495 136.733 380.735 140.093 380.308 144.68C380.095 147.133 380.628 149.747 381.908 152.52C382.015 152.84 382.281 153 382.708 153C382.921 153 383.135 152.84 383.348 152.52C382.495 149.747 382.068 147.507 382.068 145.8C382.068 143.773 382.548 142.013 383.508 140.52C385.215 137.64 387.135 136.2 389.268 136.2C391.081 136.2 392.415 136.467 393.268 137ZM405.108 187.72C405.215 187.187 405.268 186.387 405.268 185.32C405.268 181.8 404.255 178.547 402.228 175.56C399.668 171.933 396.681 170.12 393.268 170.12C392.095 170.12 391.081 170.387 390.228 170.92C388.628 172.093 387.828 173.107 387.828 173.96C387.828 175.027 388.735 175.453 390.548 175.24C391.081 174.067 392.415 173.48 394.548 173.48C397.855 173.48 400.308 175.08 401.908 178.28C403.295 180.52 403.881 183.56 403.668 187.4C403.881 187.933 404.095 188.2 404.308 188.2C404.521 188.2 404.788 188.04 405.108 187.72ZM453.956 116.2C450.969 119.187 449.156 122.813 448.516 127.08C445.742 129.427 443.076 132.04 440.516 134.92C437.956 137.8 435.609 141 433.476 144.52C428.782 152.093 426.382 159.133 426.276 165.64C426.062 177.373 430.382 187.08 439.236 194.76C447.022 201.587 455.556 205 464.836 205C465.902 196.36 468.089 191.347 471.396 189.96C471.182 188.36 470.756 187.453 470.116 187.24C469.369 187.027 468.676 187.133 468.036 187.56C465.262 189.16 463.822 189.96 463.716 189.96C457.422 189.96 451.396 186.387 445.636 179.24C439.982 172.413 437.156 165.64 437.156 158.92C437.156 145.907 440.889 136.36 448.356 130.28V131.24C448.676 131.453 449.102 131.773 449.636 132.2C450.276 132.627 451.022 133.107 451.876 133.64C459.982 138.867 464.036 145.427 464.036 153.32C464.036 158.973 459.982 164.253 451.876 169.16L453.156 171.56C459.449 167.933 463.982 164.413 466.756 161C471.129 155.667 473.316 149.213 473.316 141.64C473.316 136.307 471.289 130.813 467.236 125.16C463.289 119.613 458.862 116.627 453.956 116.2ZM455.396 145.64C451.129 145.427 447.929 147.453 445.796 151.72C443.982 155.133 443.076 159.133 443.076 163.72C443.076 168.52 444.249 172.733 446.596 176.36C448.302 179.24 451.289 182.493 455.556 186.12C456.409 186.12 456.782 185.64 456.676 184.68C453.582 182.653 450.969 179.827 448.836 176.2C446.702 172.573 445.636 169 445.636 165.48C445.636 164.733 445.636 163.933 445.636 163.08C445.742 162.227 445.849 161.373 445.956 160.52C446.809 153.8 449.422 150.173 453.796 149.64C455.076 148.68 455.716 147.72 455.716 146.76C455.716 146.44 455.609 146.067 455.396 145.64ZM508.264 127.72C510.078 127.72 512.851 128.147 516.584 129C519.998 129.747 522.824 130.12 525.064 130.12C515.038 144.307 510.024 157.373 510.024 169.32C510.024 177.64 511.624 185.213 514.824 192.04C518.664 200.68 523.998 205.213 530.824 205.64C532.211 204.467 533.704 201.747 535.304 197.48C536.691 193.853 538.611 191.293 541.064 189.8C541.384 189.053 541.544 188.413 541.544 187.88C541.544 187.347 541.278 187.08 540.744 187.08C540.424 187.08 538.451 187.987 534.824 189.8C529.064 186.707 525.171 181.8 523.144 175.08C521.651 170.067 520.904 163.613 520.904 155.72C520.904 147.507 522.238 140.52 524.904 134.76C527.358 129.427 531.624 123.72 537.704 117.64C537.491 116.36 537.064 115.827 536.424 116.04C535.784 116.147 535.038 116.573 534.184 117.32C531.411 119.347 529.811 120.36 529.384 120.36C528.318 120.36 527.144 120.2 525.864 119.88C524.584 119.453 523.251 119.08 521.864 118.76C520.584 118.333 519.304 117.96 518.024 117.64C516.744 117.213 515.624 117 514.664 117C508.158 117 501.918 121.267 495.944 129.8V119.72C495.944 117.693 494.344 116.733 491.144 116.84C485.811 124.627 481.224 129.587 477.384 131.72C476.851 132.68 476.638 133.48 476.744 134.12C476.744 134.973 477.064 135.4 477.704 135.4C478.238 135.4 478.824 135.24 479.464 134.92C480.104 134.6 480.584 134.44 480.904 134.44C481.224 134.44 481.491 134.493 481.704 134.6V201.96C481.704 204.093 483.304 205.053 486.504 204.84C492.051 197.053 496.638 192.093 500.264 189.96C500.691 189.32 500.958 188.573 501.064 187.72C501.064 186.76 500.691 186.28 499.944 186.28L498.504 186.6C498.718 184.253 498.878 181.907 498.984 179.56C499.091 177.213 499.198 174.813 499.304 172.36C499.731 166.493 500.531 161.853 501.704 158.44C502.984 154.173 506.344 150.973 511.784 148.84C511.891 148.413 511.944 147.933 511.944 147.4C511.944 146.44 511.411 145.8 510.344 145.48C505.438 145.48 501.971 149.533 499.944 157.64C498.878 161.373 498.131 165.64 497.704 170.44C497.278 175.24 497.118 180.68 497.224 186.76L495.944 187.08V139.56C495.944 136.787 497.171 134.013 499.624 131.24C501.864 128.893 504.744 127.72 508.264 127.72ZM524.424 172.2C524.424 174.76 526.664 179.133 531.144 185.32C531.358 184.573 531.251 183.773 530.824 182.92C529.971 181.213 529.064 179.4 528.104 177.48C527.251 175.56 526.824 173.8 526.824 172.2C526.824 171.667 527.144 170.813 527.784 169.64C529.384 167.293 530.291 165.533 530.504 164.36C530.611 163.72 530.131 163.4 529.064 163.4C525.971 165.533 524.424 168.467 524.424 172.2Z" fill="#8F1E31"/>
<path d="M289.323 39.28C289.771 39.248 290.203 39.248 290.619 39.28C291.035 39.28 291.451 39.296 291.867 39.328C294.843 39.616 296.331 40.784 296.331 42.832C296.331 43.664 295.995 44.128 295.323 44.224C294.715 44.32 294.379 44.448 294.315 44.608C294.283 45.056 294.427 45.376 294.747 45.568C295.067 45.76 295.451 45.808 295.899 45.712C296.987 45.52 297.531 44.8 297.531 43.552C297.531 41.504 296.219 39.984 293.595 38.992C295.035 39.152 296.139 39.584 296.907 40.288C297.867 41.216 298.347 42.608 298.347 44.464C298.347 45.328 298.027 46.208 297.387 47.104C296.747 47.936 296.011 48.352 295.179 48.352C294.699 48.352 294.107 47.92 293.403 47.056C292.699 46.192 291.915 45.696 291.051 45.568C290.987 45.536 290.923 45.568 290.859 45.664C290.827 45.728 290.843 45.856 290.907 46.048C291.067 46.496 291.195 46.768 291.291 46.864C292.859 48.432 294.251 49.184 295.467 49.12C295.979 49.088 296.459 48.944 296.907 48.688C297.355 48.432 297.739 48.112 298.059 47.728C298.379 47.344 298.635 46.912 298.827 46.432C299.019 45.92 299.115 45.392 299.115 44.848C299.115 42.8 298.507 41.152 297.291 39.904C296.075 38.656 294.411 38.032 292.299 38.032C290.859 38.032 289.467 38.24 288.123 38.656C288.091 38.272 288.059 37.888 288.027 37.504C288.027 37.12 288.027 36.752 288.027 36.4V34.912C288.027 34.656 288.027 34.416 288.027 34.192C288.027 33.968 288.043 33.744 288.075 33.52C288.235 33.328 288.411 33.136 288.603 32.944C288.795 32.72 289.019 32.496 289.275 32.272C289.403 32.688 289.531 33.12 289.659 33.568C289.819 34.016 290.091 34.256 290.475 34.288C290.731 34.288 291.355 33.984 292.347 33.376C293.339 32.768 293.835 32.4 293.835 32.272C293.867 31.92 293.675 31.616 293.259 31.36C292.843 31.104 292.459 30.864 292.107 30.64C293.611 30.576 294.795 30.96 295.659 31.792C296.331 31.28 296.667 30.768 296.667 30.256C296.667 30.128 296.635 29.968 296.571 29.776H297.099C297.547 29.776 297.979 29.968 298.395 30.352C298.843 30.704 299.083 31.088 299.115 31.504C299.115 31.792 298.731 32.128 297.963 32.512C297.227 32.864 296.843 33.2 296.811 33.52C296.811 33.616 296.859 33.712 296.955 33.808C297.083 33.904 297.227 33.984 297.387 34.048C297.547 34.112 297.707 34.16 297.867 34.192C298.059 34.224 298.203 34.24 298.299 34.24C298.811 34.208 299.211 33.872 299.499 33.232C299.723 32.752 299.835 32.208 299.835 31.6C299.835 30.8 299.291 30.192 298.203 29.776C297.339 29.424 296.459 29.248 295.563 29.248C292.715 29.216 290.251 30.304 288.171 32.512C288.203 32.16 288.235 31.776 288.267 31.36C288.331 30.944 288.427 30.512 288.555 30.064C291.083 25.84 294.123 23.728 297.675 23.728C299.403 23.728 300.267 23.616 300.267 23.392C300.267 23.008 299.371 22.784 297.579 22.72C296.171 22.688 294.539 23.36 292.683 24.736C292.843 24.416 293.083 24.08 293.403 23.728C293.723 23.344 294.139 22.944 294.651 22.528C295.035 22.208 295.419 21.888 295.803 21.568C296.187 21.248 296.587 20.912 297.003 20.56C299.179 18.704 300.299 17.024 300.363 15.52C300.363 15.136 300.091 14.944 299.547 14.944C299.259 14.944 299.115 15.024 299.115 15.184C299.115 15.312 299.147 15.472 299.211 15.664C299.307 15.856 299.355 16.016 299.355 16.144C299.355 16.624 299.195 17.12 298.875 17.632C298.555 18.08 298.123 18.576 297.579 19.12C297.067 19.664 296.443 20.24 295.707 20.848C292.731 23.376 290.587 25.68 289.275 27.76C289.883 26.096 290.891 24.416 292.299 22.72C292.235 22.048 291.899 21.712 291.291 21.712C287.707 25.584 285.451 30.016 284.523 35.008C284.459 35.072 284.315 35.232 284.091 35.488C283.899 35.712 283.627 36 283.275 36.352L281.019 38.704C278.971 40.816 277.883 41.856 277.755 41.824C277.883 41.952 278.827 40.72 280.587 38.128L282.507 35.296C282.795 34.848 283.019 34.496 283.179 34.24C283.339 33.984 283.451 33.824 283.515 33.76C286.331 29.088 288.027 24.4 288.603 19.696C289.627 20.208 290.875 20.464 292.347 20.464C294.075 20.464 295.435 19.824 296.427 18.544C297.355 17.328 297.819 15.872 297.819 14.176C297.819 12.96 297.019 11.968 295.419 11.2C293.499 10.336 292.299 9.328 291.819 8.17599C291.467 8.944 291.291 9.664 291.291 10.336C291.291 11.584 292.155 12.608 293.883 13.408C295.643 14.24 296.539 15.088 296.571 15.952C296.603 16.432 296.459 16.928 296.139 17.44C295.819 17.952 295.435 18.208 294.987 18.208C293.707 18.208 292.507 17.648 291.387 16.528C290.939 15.984 290.507 15.456 290.091 14.944C289.675 14.4 289.243 13.856 288.795 13.312C288.667 10.816 288.155 9.008 287.259 7.888C285.979 6.256 283.723 5.424 280.491 5.392L280.731 5.872C282.939 5.968 284.619 6.528 285.771 7.552C286.955 8.544 287.691 10.16 287.979 12.4C285.675 9.936 282.683 8.688 279.003 8.656C278.395 8.656 277.771 8.832 277.131 9.184C273.899 4.96 269.595 2.64 264.219 2.224V2.17599C264.187 2.17599 264.171 2.16 264.171 2.128C264.171 1.936 264.459 1.76 265.035 1.6C265.611 1.472 265.899 1.312 265.899 1.12C265.899 0.607996 265.483 0.351995 264.651 0.351995C264.267 0.351995 263.963 0.543997 263.739 0.927999C263.515 1.312 263.403 1.712 263.403 2.128V2.17599C263.275 2.17599 263.163 2.16 263.067 2.128H262.731C261.003 2.128 259.323 2.464 257.691 3.136C255.803 3.968 254.859 4.896 254.859 5.92C254.859 6.88 255.259 7.376 256.059 7.408L256.635 6.88C255.963 6.976 255.627 6.48 255.627 5.392C255.627 5.104 255.867 4.784 256.347 4.432C258.011 3.408 260.011 2.896 262.347 2.896C262.603 2.896 263.147 2.944 263.979 3.04C265.867 4.64 267.371 5.856 268.491 6.688C269.675 7.616 270.811 8.544 271.899 9.472C272.987 10.4 274.027 11.344 275.019 12.304C274.987 12.368 274.971 12.576 274.971 12.928C274.971 13.504 275.467 14.192 276.459 14.992C277.419 15.792 277.931 16.448 277.995 16.96C277.995 17.12 277.947 17.328 277.851 17.584C277.755 17.84 277.707 18.048 277.707 18.208C278.283 18.144 278.699 17.92 278.955 17.536C279.723 19.456 280.107 22.08 280.107 25.408C279.691 24.128 279.227 23.488 278.715 23.488C278.395 23.488 278.235 23.648 278.235 23.968C278.235 24.288 278.491 24.608 279.003 24.928C279.483 25.248 279.803 25.728 279.963 26.368C279.547 26.496 279.195 26.576 278.907 26.608C278.459 26.768 278.235 26.992 278.235 27.28C278.235 27.6 278.395 27.872 278.715 28.096C279.035 28.32 279.339 28.368 279.627 28.24C279.947 28.08 280.075 28.688 280.011 30.064C279.979 30.576 279.947 31.056 279.915 31.504C279.883 31.952 279.835 32.384 279.771 32.8C279.387 33.696 278.987 34.08 278.571 33.952C278.123 33.824 277.739 33.712 277.419 33.616C277.099 33.488 276.827 33.376 276.603 33.28C277.179 31.424 277.467 29.6 277.467 27.808C277.467 22.688 276.107 18.432 273.387 15.04C270.059 10.944 265.291 8.896 259.083 8.896C257.803 8.896 256.731 9.024 255.867 9.27999C252.155 6.688 248.363 5.392 244.491 5.392C239.467 5.392 236.139 6.56 234.507 8.896C234.475 8.928 234.459 8.992 234.459 9.088C234.459 9.184 234.539 9.264 234.699 9.328C234.859 9.36 234.955 9.392 234.987 9.424C236.907 7.248 240.075 6.16 244.491 6.16C247.851 6.16 251.259 7.312 254.715 9.616C253.371 10.064 252.171 10.688 251.115 11.488C248.811 10.432 246.123 9.904 243.051 9.904C241.387 9.904 238.683 10.416 234.939 11.44C231.291 12.432 228.715 12.928 227.211 12.928C226.059 12.928 224.891 12.592 223.707 11.92C222.363 11.216 221.691 10.464 221.691 9.664C221.691 9.376 221.899 8.976 222.315 8.464C222.763 7.92 223.147 7.648 223.467 7.648C224.235 7.648 225.115 7.904 226.107 8.416C227.099 8.896 227.979 9.136 228.747 9.136C229.195 9.136 229.691 8.992 230.235 8.704C231.291 8.064 231.851 7.328 231.915 6.496C231.915 6.112 231.691 5.824 231.243 5.632C231.083 6.4 230.747 6.8 230.235 6.832C229.659 6.896 229.067 6.816 228.459 6.592C228.427 6.592 227.787 6.352 226.539 5.872C225.771 5.552 225.163 5.392 224.715 5.392C223.723 5.392 222.827 5.68 222.027 6.256C221.131 6.928 220.683 7.728 220.683 8.656C220.683 9.744 220.987 10.656 221.595 11.392C223.259 13.6 225.867 14.704 229.419 14.704C229.995 14.704 230.715 14.672 231.579 14.608C232.443 14.544 233.467 14.448 234.651 14.32C235.835 14.16 236.875 14.048 237.771 13.984C238.667 13.92 239.419 13.904 240.027 13.936C243.003 14 245.483 14.592 247.467 15.712C246.923 16.672 246.539 17.728 246.315 18.88C243.403 16.928 240.011 15.952 236.139 15.952C233.611 15.952 230.171 16.624 225.819 17.968C221.435 19.312 218.747 19.984 217.755 19.984C216.571 19.984 215.755 19.872 215.307 19.648C214.635 19.328 214.267 18.64 214.203 17.584C214.203 16.784 213.883 16.064 213.243 15.424C212.603 14.752 211.867 14.352 211.035 14.224C211.131 13.648 211.323 13.104 211.611 12.592C211.899 12.08 212.251 11.632 212.667 11.248C213.083 10.832 213.547 10.512 214.059 10.288C214.539 10.032 215.051 9.904 215.595 9.904C215.915 9.904 216.251 9.968 216.603 10.096C216.923 10.224 217.227 10.4 217.515 10.624C217.803 10.816 218.043 11.056 218.235 11.344C218.395 11.6 218.475 11.872 218.475 12.16C218.475 12.736 218.251 13.264 217.803 13.744C217.355 14.192 216.843 14.416 216.267 14.416C216.107 14.416 215.915 14.32 215.691 14.128C215.147 13.68 214.795 13.44 214.635 13.408C214.507 13.408 214.443 13.584 214.443 13.936C214.443 14.256 214.763 14.512 215.403 14.704C215.947 14.864 216.411 14.944 216.795 14.944C217.467 14.944 217.995 14.64 218.379 14.032C218.763 13.424 218.955 12.768 218.955 12.064C218.955 11.264 218.539 10.576 217.707 10C216.875 9.424 216.043 9.136 215.211 9.136C213.995 9.136 212.907 9.664 211.947 10.72C210.955 11.744 210.363 12.896 210.171 14.176C209.563 14.208 209.019 14.368 208.539 14.656C208.027 14.944 207.595 15.328 207.243 15.808C206.891 16.256 206.619 16.784 206.427 17.392C206.235 17.968 206.139 18.576 206.139 19.216C206.139 20.272 206.331 21.216 206.715 22.048C207.067 22.88 207.579 23.6 208.251 24.208C208.923 24.784 209.723 25.232 210.651 25.552C211.547 25.84 212.539 25.984 213.627 25.984C216.379 25.984 219.179 25.072 222.027 23.248C222.731 22.8 223.419 22.352 224.091 21.904C224.795 21.456 225.499 21.008 226.203 20.56C227.771 19.568 229.243 18.784 230.619 18.208C229.211 19.392 228.075 20.88 227.211 22.672C226.347 24.464 225.931 26.24 225.963 28C226.027 29.152 226.299 30.272 226.779 31.36C227.611 33.184 228.875 34.64 230.571 35.728C232.267 36.784 234.123 37.312 236.139 37.312C237.099 37.312 238.027 37.168 238.923 36.88C239.851 36.592 240.683 36.192 241.419 35.68C242.155 35.168 242.795 34.544 243.339 33.808C243.915 33.072 244.347 32.24 244.635 31.312C246.075 32.752 246.795 34.896 246.795 37.744C246.795 38.064 246.779 38.384 246.747 38.704C246.747 39.024 246.731 39.344 246.699 39.664C246.539 40.752 246.347 41.36 246.123 41.488C246.187 41.456 246.251 41.296 246.315 41.008C246.347 40.752 246.363 40.464 246.363 40.144C246.395 39.824 246.411 39.472 246.411 39.088V38.416C246.411 38 246.251 37.568 245.931 37.12C245.195 36.16 244.395 35.6 243.531 35.44C243.147 35.376 242.907 35.552 242.811 35.968C242.715 36.352 242.939 36.544 243.483 36.544C243.707 36.544 243.995 36.496 244.347 36.4C244.667 36.368 244.907 36.416 245.067 36.544C245.131 36.608 245.163 36.656 245.163 36.688C245.163 36.816 245.003 36.944 244.683 37.072C244.171 37.296 243.963 37.456 244.059 37.552C244.219 37.744 244.587 38 245.163 38.32C245.611 38.576 245.835 38.912 245.835 39.328V39.856C245.387 39.504 245.067 39.328 244.875 39.328C244.427 39.328 244.203 39.6 244.203 40.144C244.203 40.304 244.219 40.432 244.251 40.528C243.451 40.336 243.051 40.608 243.051 41.344C243.051 41.664 243.163 41.984 243.387 42.304C243.611 42.592 243.947 42.768 244.395 42.832C244.715 42.896 244.955 43.136 245.115 43.552C244.635 44.32 243.819 45.28 242.667 46.432L243.051 46.576C246.091 44.048 247.595 41.152 247.563 37.888C247.467 34.4 246.555 31.952 244.827 30.544C244.891 30.128 244.939 29.744 244.971 29.392C245.035 29.04 245.067 28.688 245.067 28.336C245.067 26.736 244.475 25.344 243.291 24.16C242.011 22.88 240.331 22.24 238.251 22.24C236.875 22.24 235.787 22.656 234.987 23.488C234.187 24.288 233.771 25.376 233.739 26.752C233.739 27.616 234.075 28.384 234.747 29.056C235.419 29.728 235.755 30.272 235.755 30.688C235.531 31.072 235.451 31.6 235.515 32.272C235.515 32.432 235.547 32.512 235.611 32.512C235.867 32.512 236.219 32.144 236.667 31.408C237.083 30.672 237.291 30.128 237.291 29.776C237.291 29.136 237.035 28.464 236.523 27.76C236.075 27.024 235.819 26.352 235.755 25.744C235.723 24.912 236.139 24.224 237.003 23.68C237.707 23.2 238.523 22.96 239.451 22.96C241.147 22.96 242.395 23.744 243.195 25.312C243.899 26.624 244.155 28.176 243.963 29.968C243.003 29.488 241.947 29.248 240.795 29.248C240.443 29.248 240.091 29.376 239.739 29.632C239.419 29.856 239.259 30.144 239.259 30.496C239.259 30.56 239.339 30.592 239.499 30.592C239.627 30.592 239.723 30.56 239.787 30.496C239.915 30.176 240.475 30.016 241.467 30.016C242.299 30.016 243.083 30.24 243.819 30.688C243.435 32.384 242.427 33.76 240.795 34.816C239.323 35.808 237.659 36.304 235.803 36.304C234.235 36.304 232.875 36.032 231.723 35.488C228.715 34.048 227.211 31.456 227.211 27.712C227.211 24.224 228.299 21.536 230.475 19.648C229.035 20.896 228.315 22.72 228.315 25.12C228.315 25.696 228.523 26.288 228.939 26.896C229.355 27.472 229.835 27.76 230.379 27.76C231.083 27.76 231.451 27.504 231.483 26.992C231.515 26.8 231.419 26.624 231.195 26.464C230.971 26.304 230.763 26.224 230.571 26.224C230.443 26.224 230.299 26.32 230.139 26.512C229.979 26.672 229.835 26.752 229.707 26.752C229.035 26.752 228.699 26.24 228.699 25.216C228.699 24.16 228.843 23.632 229.131 23.632C229.355 23.632 229.627 23.84 229.947 24.256C230.107 23.648 230.171 23.12 230.139 22.672C230.107 22.192 230.011 21.68 229.851 21.136L230.283 20.56C230.571 21.328 230.811 21.712 231.003 21.712C231.067 21.616 231.371 21.296 231.915 20.752L232.635 20.08C232.859 19.888 232.971 19.76 232.971 19.696C232.971 19.344 232.811 18.864 232.491 18.256C234.219 17.392 236.123 16.96 238.203 16.96C241.051 16.96 243.707 17.968 246.171 19.984C246.139 20.24 246.107 20.496 246.075 20.752C246.075 20.976 246.075 21.216 246.075 21.472C246.075 26.176 247.723 29.6 251.019 31.744C250.507 39.744 247.275 45.104 241.323 47.824L242.043 48.112C248.059 45.04 251.451 39.808 252.219 32.416C252.539 32.576 252.875 32.72 253.227 32.848C253.579 32.976 253.947 33.088 254.331 33.184C253.211 40.416 249.195 45.584 242.283 48.688L243.531 49.12L244.059 50.128C246.459 50.256 248.571 50.624 250.395 51.232C252.507 51.936 254.091 52.912 255.147 54.16C255.307 54.992 255.419 55.664 255.483 56.176C255.579 56.656 255.627 56.976 255.627 57.136C255.563 57.776 255.291 58.368 254.811 58.912C254.747 58.976 254.587 59.12 254.331 59.344C254.075 59.568 253.723 59.872 253.275 60.256C251.771 61.472 251.035 62.848 251.067 64.384C251.067 64.736 250.603 64.912 249.675 64.912C248.235 64.912 246.827 64.352 245.451 63.232C244.011 62.048 243.291 60.768 243.291 59.392C243.291 58.784 243.483 58.112 243.867 57.376C244.667 57.696 245.307 58.048 245.787 58.432C246.235 58.784 246.491 59.28 246.555 59.92C246.587 60.528 246.667 60.864 246.795 60.928C246.955 60.992 247.131 60.864 247.323 60.544C247.835 59.744 248.091 58.976 248.091 58.24C248.091 56.96 247.611 55.808 246.651 54.784C246.939 54.688 247.211 54.64 247.467 54.64C248.075 54.64 248.667 55.088 249.243 55.984C250.043 57.264 250.795 57.904 251.499 57.904C251.947 57.904 252.395 57.488 252.843 56.656C252.523 56.72 252.299 56.752 252.171 56.752C251.659 56.752 251.035 56.336 250.299 55.504C249.403 54.416 248.395 53.872 247.275 53.872C247.019 53.872 246.603 53.968 246.027 54.16C245.227 53.456 244.203 52.816 242.955 52.24C242.603 52.08 242.139 51.888 241.563 51.664C240.987 51.408 240.315 51.136 239.547 50.848L237.003 49.888C236.555 49.728 236.139 49.568 235.755 49.408C235.403 49.216 235.051 49.024 234.699 48.832C233.227 48.032 232.491 47.168 232.491 46.24C232.491 44.288 233.163 43.312 234.507 43.312C235.083 43.312 235.979 43.744 237.195 44.608C238.411 45.44 239.323 45.856 239.931 45.856C240.507 45.856 241.163 45.616 241.899 45.136C242.603 44.656 242.987 44.144 243.051 43.6C242.987 43.6 242.875 43.632 242.715 43.696C242.555 43.76 242.379 43.824 242.187 43.888C241.995 43.92 241.787 43.968 241.563 44.032C241.371 44.064 241.211 44.08 241.083 44.08C240.859 44.08 240.059 43.664 238.683 42.832C237.307 42 236.219 41.584 235.419 41.584C234.459 41.584 233.483 42.08 232.491 43.072C231.243 44.32 230.619 45.536 230.619 46.72C230.683 48.544 231.515 50.256 233.115 51.856C234.363 53.104 235.995 54.192 238.011 55.12C239.131 55.568 240.123 55.968 240.987 56.32C241.851 56.64 242.571 56.896 243.147 57.088C242.731 57.888 242.523 58.72 242.523 59.584C242.523 61.344 243.339 62.864 244.971 64.144C246.443 65.296 248.043 65.872 249.771 65.872C250.443 65.872 251.019 65.792 251.499 65.632C252.235 66.656 253.275 67.168 254.619 67.168C255.227 67.168 255.643 66.912 255.867 66.4C255.323 66.464 254.939 66.512 254.715 66.544C254.491 66.608 254.443 66.64 254.571 66.64C253.579 66.64 252.731 66.24 252.027 65.44C253.467 64.832 254.667 63.728 255.627 62.128C256.619 60.56 257.115 58.976 257.115 57.376C257.115 55.008 255.995 53.136 253.755 51.76C251.963 50.64 249.739 49.968 247.083 49.744C249.195 49.392 251.179 48.8 253.035 47.968C254.891 47.136 256.683 46.08 258.411 44.8C258.955 44.672 259.243 44.608 259.275 44.608C259.595 44.608 259.851 44.768 260.043 45.088C260.235 45.408 260.459 45.568 260.715 45.568C261.515 45.568 261.915 45.456 261.915 45.232C261.915 45.104 261.867 44.992 261.771 44.896C261.675 44.8 261.627 44.704 261.627 44.608C261.627 44.384 261.755 44.192 262.011 44.032C262.267 43.84 262.395 43.648 262.395 43.456C262.395 43.04 262.219 42.832 261.867 42.832C261.483 42.832 261.131 42.88 260.811 42.976C261.387 42.592 261.979 42.224 262.587 41.872C263.227 41.488 263.851 41.296 264.459 41.296C264.715 41.296 264.923 41.52 265.083 41.968C265.211 42.384 265.403 42.592 265.659 42.592C265.755 42.592 265.899 42.528 266.091 42.4C266.315 42.272 266.427 42.16 266.427 42.064C266.427 41.648 266.219 41.296 265.803 41.008C265.387 40.72 264.955 40.576 264.507 40.576C263.963 40.576 263.403 40.672 262.827 40.864C263.851 39.84 264.699 39.024 265.371 38.416C266.043 37.776 266.507 37.344 266.763 37.12C268.331 35.776 269.851 34.864 271.323 34.384C270.779 37.648 269.819 40.352 268.443 42.496C266.651 45.248 264.107 47.456 260.811 49.12L261.963 49.6C265.195 48.224 268.107 46.144 270.699 43.36C273.291 40.64 275.163 37.584 276.315 34.192C276.667 34.256 277.035 34.368 277.419 34.528C277.835 34.688 278.267 34.88 278.715 35.104C275.579 41.12 270.155 46.16 262.443 50.224L262.923 50.368C267.723 49.28 272.107 46.336 276.075 41.536C280.107 36.64 282.235 31.712 282.459 26.752C282.875 26.336 283.259 26.096 283.611 26.032C284.155 25.808 284.459 25.232 284.523 24.304C284.555 23.92 284.379 23.728 283.995 23.728C283.611 23.728 283.419 23.648 283.419 23.488C283.419 23.2 283.707 22.928 284.283 22.672C284.859 22.384 285.307 22.24 285.627 22.24C285.691 22.24 285.723 22.208 285.723 22.144C285.723 21.696 285.547 21.472 285.195 21.472C284.395 21.472 283.771 21.888 283.323 22.72C283.163 23.136 283.019 23.536 282.891 23.92C282.763 24.304 282.635 24.688 282.507 25.072C282.379 19.312 280.811 14.304 277.803 10.048C278.187 9.92 278.475 9.872 278.667 9.904C279.531 10.032 280.379 10.512 281.211 11.344C281.691 11.888 282.299 12.704 283.035 13.792C284.891 16.576 286.491 18.4 287.835 19.264C287.323 23.84 285.611 28.672 282.699 33.76C278.571 40.928 272.971 46.288 265.899 49.84L266.667 50.128V50.368C269.707 49.728 272.939 48.352 276.363 46.24C278.091 45.184 279.595 44.256 280.875 43.456C282.155 42.624 283.211 41.936 284.043 41.392C284.299 47.76 287.227 54.08 292.827 60.352C293.115 60.608 293.387 60.768 293.643 60.832C292.331 61.344 291.099 61.568 289.947 61.504C289.627 61.472 289.307 61.44 288.987 61.408C288.667 61.376 288.347 61.328 288.027 61.264L286.155 60.832C287.915 60.544 288.795 59.792 288.795 58.576C288.795 57.36 288.475 56.752 287.835 56.752C287.547 56.752 287.355 56.88 287.259 57.136C287.195 57.296 287.259 57.488 287.451 57.712C287.675 57.936 287.787 58.144 287.787 58.336C287.787 58.688 287.451 59.12 286.779 59.632C286.203 60.144 285.691 60.448 285.243 60.544C284.795 60.64 284.395 60.512 284.043 60.16L283.995 60.112C283.419 59.856 282.923 59.568 282.507 59.248C282.475 56.688 281.531 54.608 279.675 53.008C280.891 53.424 281.899 53.632 282.699 53.632C284.427 53.632 285.291 52.784 285.291 51.088C285.291 50.448 285.051 50.128 284.571 50.128C284.187 50.128 283.995 50.384 283.995 50.896C283.995 51.024 284.075 51.152 284.235 51.28C284.427 51.376 284.523 51.488 284.523 51.616C284.523 51.808 284.443 51.984 284.283 52.144C284.123 52.304 283.931 52.448 283.707 52.576C283.483 52.672 283.227 52.752 282.939 52.816C282.683 52.848 282.459 52.864 282.267 52.864C281.915 52.832 281.563 52.8 281.211 52.768C280.859 52.704 280.507 52.608 280.155 52.48C279.995 52.416 279.755 52.32 279.435 52.192C279.147 52.032 278.747 51.824 278.235 51.568C276.539 50.768 274.571 50.368 272.331 50.368C271.851 50.368 271.291 50.384 270.651 50.416C270.043 50.448 269.355 50.496 268.587 50.56C266.603 50.688 265.371 50.784 264.891 50.848L265.371 51.376C265.499 51.376 265.659 51.376 265.851 51.376C266.043 51.376 266.299 51.36 266.619 51.328L268.443 51.28C270.107 51.248 270.955 51.168 270.987 51.04L270.939 51.136C273.371 51.712 275.467 52.88 277.227 54.64C278.123 55.632 278.891 56.496 279.531 57.232C280.203 57.968 280.763 58.592 281.211 59.104C281.211 59.2 281.227 59.296 281.259 59.392V59.632C281.259 61.392 280.523 63.024 279.051 64.528C277.579 66.032 275.899 66.816 274.011 66.88C273.179 66.88 272.283 66.736 271.323 66.448C269.819 65.936 268.603 65.12 267.675 64C266.683 62.816 266.187 61.44 266.187 59.872C266.187 59.072 266.395 58.304 266.811 57.568C269.243 58.56 270.459 59.584 270.459 60.64C270.459 60.96 270.363 61.456 270.171 62.128C270.555 62.128 270.875 62 271.131 61.744C271.835 61.008 272.187 59.808 272.187 58.144C272.187 56.96 271.515 55.808 270.171 54.688C270.683 54.496 271.259 54.4 271.899 54.4C272.603 54.4 273.291 54.736 273.963 55.408C274.635 56.08 274.971 56.768 274.971 57.472C274.971 57.76 274.907 58.064 274.779 58.384C274.651 58.704 274.507 59.024 274.347 59.344C274.187 59.696 274.043 60.032 273.915 60.352C273.787 60.704 273.723 61.04 273.723 61.36C273.723 61.776 273.867 62.176 274.155 62.56C274.763 63.328 275.387 63.792 276.027 63.952C276.315 64.016 276.459 63.904 276.459 63.616C276.459 63.456 276.395 63.36 276.267 63.328C275.563 63.008 275.211 62.672 275.211 62.32C275.211 61.84 275.499 61.216 276.075 60.448C276.683 59.744 276.987 59.136 276.987 58.624C276.987 57.248 276.443 56.08 275.355 55.12C274.267 54.128 273.131 53.632 271.947 53.632C271.179 53.632 270.347 53.808 269.451 54.16C268.075 53.264 266.475 52.592 264.651 52.144C262.315 51.6 260.491 50.96 259.179 50.224C257.867 49.456 257.211 48.64 257.211 47.776C257.211 47.424 257.355 47.024 257.643 46.576C256.587 47.024 256.059 48.08 256.059 49.744C256.059 50.768 256.299 51.632 256.779 52.336C257.867 54.096 260.075 55.456 263.403 56.416L264.747 56.8C265.003 56.864 265.243 56.944 265.467 57.04C265.723 57.136 265.979 57.232 266.235 57.328C265.851 58.16 265.659 58.976 265.659 59.776C265.659 62.24 266.443 64.208 268.011 65.68C269.579 67.152 271.643 67.888 274.203 67.888C274.427 67.888 274.635 67.872 274.827 67.84C275.051 67.84 275.259 67.824 275.451 67.792L273.003 69.52C272.043 70.32 271.531 71.088 271.467 71.824C271.467 72.368 271.691 72.864 272.139 73.312C272.587 73.792 273.083 74.032 273.627 74.032C273.979 74.032 274.363 73.84 274.779 73.456C275.227 73.072 275.451 72.704 275.451 72.352C275.451 71.904 275.179 71.68 274.635 71.68C274.507 71.68 274.411 71.76 274.347 71.92C274.091 72.752 273.707 73.168 273.195 73.168C272.971 73.168 272.747 73.024 272.523 72.736C272.299 72.48 272.187 72.224 272.187 71.968C272.187 71.52 272.427 71.072 272.907 70.624C274.123 69.664 275.195 68.848 276.123 68.176C277.051 67.504 277.851 66.96 278.523 66.544C280.923 64.784 282.235 62.656 282.459 60.16C283.419 60.864 284.987 61.456 287.163 61.936C287.771 62.096 288.491 62.256 289.323 62.416C290.155 62.576 291.115 62.736 292.203 62.896C292.843 62.96 293.483 63.04 294.123 63.136C294.763 63.232 295.403 63.328 296.043 63.424C297.931 63.776 298.859 64.096 298.827 64.384C298.795 64.576 298.667 64.736 298.443 64.864C298.219 65.024 298.107 65.2 298.107 65.392C298.107 65.712 298.363 65.872 298.875 65.872C299.515 65.872 299.835 65.632 299.835 65.152C299.835 64.096 298.987 63.28 297.291 62.704C296.939 62.576 296.443 62.448 295.803 62.32C295.163 62.192 294.379 62.064 293.451 61.936C295.083 61.488 296.523 60.784 297.771 59.824C299.275 58.64 300.059 57.328 300.123 55.888C300.123 55.472 300.043 54.976 299.883 54.4C299.627 53.728 299.339 53.392 299.019 53.392C298.571 53.392 298.347 53.568 298.347 53.92C298.347 54.272 298.555 54.56 298.971 54.784C299.387 54.976 299.595 55.232 299.595 55.552C299.595 57.408 298.107 58.976 295.131 60.256C295.291 60.096 295.451 59.936 295.611 59.776C295.803 59.616 295.995 59.456 296.187 59.296C297.723 58.112 298.523 56.976 298.587 55.888C298.555 55.76 298.491 55.648 298.395 55.552C298.203 55.616 298.043 55.68 297.915 55.744L297.339 56.08C297.147 56.208 297.003 56.224 296.907 56.128C291.819 51.52 288.923 46 288.219 39.568C288.475 39.504 288.699 39.44 288.891 39.376C289.115 39.312 289.291 39.264 289.419 39.232L289.323 39.28ZM283.995 40.48C283.419 40.832 282.843 41.2 282.267 41.584C281.691 41.936 281.099 42.32 280.491 42.736C275.435 46.288 271.195 48.624 267.771 49.744C268.539 49.488 269.275 49.104 269.979 48.592C271.067 47.856 272.011 47.2 272.811 46.624C273.611 46.048 274.283 45.584 274.827 45.232C278.379 42.64 281.483 40.064 284.139 37.504C284.043 38.432 283.995 39.376 283.995 40.336V40.48ZM281.259 25.312C281.259 27.36 281.003 29.168 280.491 30.736C280.587 29.456 280.651 28.208 280.683 26.992C280.715 25.744 280.715 24.528 280.683 23.344C280.587 21.008 280.107 18.896 279.243 17.008C279.339 16.72 279.387 16.464 279.387 16.24C279.387 15.792 279.035 15.2 278.331 14.464C277.275 13.376 276.747 12.288 276.747 11.2C276.747 10.976 276.843 10.768 277.035 10.576C279.883 14.704 281.291 19.616 281.259 25.312ZM264.795 3.088C269.563 3.728 273.435 5.936 276.411 9.712C275.771 10.288 275.339 10.96 275.115 11.728C273.675 10.32 271.643 8.576 269.019 6.496C267.771 5.536 266.795 4.768 266.091 4.192C265.387 3.616 264.955 3.248 264.795 3.088ZM210.939 15.232C211.611 15.264 212.315 15.632 213.051 16.336C213.531 16.816 213.771 17.296 213.771 17.776C213.771 18.064 213.675 18.368 213.483 18.688C211.819 17.728 210.971 16.576 210.939 15.232ZM213.147 19.264C212.987 19.456 212.843 19.648 212.715 19.84C212.555 20.032 212.395 20.224 212.235 20.416C211.851 20.896 211.659 21.312 211.659 21.664C211.659 22.368 211.995 22.72 212.667 22.72C212.379 22.336 212.219 22 212.187 21.712C212.123 21.552 212.315 21.184 212.763 20.608C212.891 20.416 213.019 20.224 213.147 20.032C213.275 19.84 213.403 19.648 213.531 19.456C215.291 20.288 217.275 20.704 219.483 20.704C219.579 20.704 221.131 20.192 224.139 19.168C225.707 18.624 227.179 18.176 228.555 17.824C229.963 17.44 231.275 17.136 232.491 16.912C232.459 16.944 232.427 16.96 232.395 16.96C232.395 16.96 232.379 16.976 232.347 17.008C230.171 17.84 228.075 18.768 226.059 19.792C224.043 20.784 222.075 21.888 220.155 23.104C218.811 23.968 217.803 24.544 217.131 24.832C215.979 25.312 214.827 25.536 213.675 25.504C211.915 25.472 210.363 24.992 209.019 24.064C207.451 22.976 206.667 21.424 206.667 19.408C206.667 18.416 207.019 17.504 207.723 16.672C208.427 15.808 209.259 15.312 210.219 15.184C210.347 16.912 211.323 18.272 213.147 19.264ZM258.747 33.664C259.355 33.632 259.931 33.552 260.475 33.424C261.051 33.296 261.595 33.12 262.107 32.896C260.763 37.408 258.491 41.056 255.291 43.84C252.123 46.624 248.203 48.384 243.531 49.12C251.595 45.696 256.667 40.544 258.747 33.664ZM266.427 26.752C266.427 24.896 266.011 23.376 265.179 22.192C265.019 22.032 264.875 21.888 264.747 21.76C264.619 21.6 264.491 21.44 264.363 21.28C263.979 20.8 263.771 20.448 263.739 20.224C263.963 19.712 264.443 19.456 265.179 19.456C265.179 19.168 265.035 18.928 264.747 18.736C264.491 18.544 264.219 18.448 263.931 18.448C263.867 18.448 263.771 18.464 263.643 18.496C263.515 18.496 263.371 18.512 263.211 18.544C262.123 15.696 260.459 13.248 258.219 11.2C258.347 11.168 258.539 11.152 258.795 11.152H259.371C263.179 11.152 266.267 13.152 268.635 17.152C270.683 20.576 271.707 24.336 271.707 28.432C271.707 30.064 271.611 31.712 271.419 33.376C269.819 33.856 268.107 34.864 266.283 36.4C266.187 36.464 265.771 36.848 265.035 37.552C264.299 38.224 263.227 39.2 261.819 40.48C257.339 44.672 253.163 47.376 249.291 48.592C256.619 45.68 261.291 40.24 263.307 32.272C265.387 31.024 266.427 29.184 266.427 26.752ZM261.387 21.088C261.419 22.464 262.059 23.648 263.307 24.64C263.275 25.76 263.195 26.864 263.067 27.952C262.939 29.008 262.763 30.048 262.539 31.072C261.739 31.584 260.603 31.92 259.131 32.08C259.483 30.384 259.659 28.848 259.659 27.472C259.659 20.72 257.483 15.792 253.131 12.688C253.771 12.368 254.411 12.096 255.051 11.872C255.691 11.648 256.363 11.472 257.067 11.344C259.659 13.616 261.435 16.16 262.395 18.976C261.659 19.552 261.323 20.256 261.387 21.088ZM264.891 26.752C264.891 28.096 264.507 29.216 263.739 30.112C263.995 28.512 264.139 26.912 264.171 25.312C264.651 25.76 264.891 26.24 264.891 26.752ZM251.595 64.384C251.595 63.712 251.787 63.136 252.171 62.656C252.363 62.432 253.083 61.744 254.331 60.592C255.195 59.824 255.803 59.056 256.155 58.288C255.675 61.52 254.155 63.6 251.595 64.528V64.384ZM254.619 29.68C254.619 30.832 254.475 31.424 254.187 31.456C253.803 31.52 253.179 31.296 252.315 30.784V30.208C252.347 30.048 252.363 29.92 252.363 29.824C252.363 29.728 252.363 29.648 252.363 29.584C252.395 25.648 250.699 22.32 247.275 19.6C247.403 19.088 247.579 18.576 247.803 18.064C248.027 17.552 248.315 17.024 248.667 16.48C252.699 19.264 254.683 23.664 254.619 29.68ZM247.083 20.848C249.739 23.6 251.067 26.64 251.067 29.968C248.411 27.888 247.083 25.072 247.083 21.52V20.848ZM281.067 57.952C280.811 57.664 280.555 57.376 280.299 57.088C280.075 56.768 279.851 56.448 279.627 56.128C277.771 53.664 275.787 52.032 273.675 51.232C277.803 51.968 280.267 54.208 281.067 57.952ZM318.866 32.464C318.866 31.76 318.322 31.424 317.234 31.456C316.946 31.872 316.658 32.288 316.37 32.704C316.082 33.12 315.794 33.552 315.506 34C315.154 34.448 314.802 34.848 314.45 35.2C314.098 35.552 313.714 35.84 313.298 36.064C313.17 36.288 313.106 36.528 313.106 36.784C313.106 37.04 313.202 37.168 313.394 37.168C313.554 37.168 313.73 37.12 313.922 37.024C314.114 36.928 314.258 36.88 314.354 36.88C314.45 36.88 314.53 36.896 314.594 36.928V52.144C313.57 53.936 312.274 54.832 310.706 54.832C310.258 54.832 309.49 54.704 308.402 54.448C307.378 54.192 306.626 54.064 306.146 54.064C305.73 54.064 305.41 54.128 305.186 54.256C308.29 50.192 309.874 45.648 309.938 40.624C310.002 37.84 309.234 35.456 307.634 33.472C306.578 32.128 305.73 31.456 305.09 31.456C304.706 31.456 304.354 31.664 304.034 32.08C303.682 32.528 303.25 33.264 302.738 34.288C302.482 34.8 302.242 35.248 302.018 35.632C301.794 35.984 301.586 36.272 301.394 36.496C301.394 36.816 301.57 36.976 301.922 36.976C301.986 36.944 302.146 36.816 302.402 36.592C302.658 36.368 302.834 36.256 302.93 36.256C303.666 36.256 304.274 36.56 304.754 37.168C306.034 38.768 306.674 41.296 306.674 44.752C306.674 46.704 306.418 48.64 305.906 50.56C305.266 52.928 304.53 54.528 303.698 55.36L303.554 55.504C303.49 55.568 303.394 55.648 303.266 55.744C303.17 55.84 303.042 55.952 302.882 56.08C302.146 56.816 301.762 57.312 301.73 57.568C301.666 57.76 301.81 57.856 302.162 57.856C303.314 57.344 304.146 57.088 304.658 57.088C304.914 57.088 305.218 57.136 305.57 57.232C305.954 57.296 306.338 57.376 306.722 57.472C307.138 57.568 307.554 57.664 307.97 57.76C308.386 57.824 308.77 57.856 309.122 57.856C309.794 57.856 310.402 57.712 310.946 57.424C311.618 57.104 312.29 56.56 312.962 55.792C312.994 55.76 313.138 55.584 313.394 55.264C313.682 54.912 314.082 54.4 314.594 53.728V57.136C314.594 57.776 315.074 58.064 316.034 58C317.634 55.664 319.01 54.176 320.162 53.536C320.226 53.408 320.29 53.168 320.354 52.816C320.354 52.528 320.258 52.4 320.066 52.432L319.634 52.528C319.602 52.112 319.57 51.728 319.538 51.376C319.538 51.024 319.538 50.688 319.538 50.368C319.538 49.376 319.618 48.64 319.778 48.16C320.034 47.424 320.53 46.944 321.266 46.72C321.33 46.528 321.362 46.384 321.362 46.288C321.362 46.16 321.218 46 320.93 45.808C320.674 45.808 320.434 45.856 320.21 45.952C319.666 46.208 319.33 47.168 319.202 48.832C319.17 49.28 319.154 49.824 319.154 50.464C319.154 51.072 319.186 51.776 319.25 52.576L318.866 52.672V32.464ZM313.49 41.536C313.618 41.056 313.362 40.72 312.722 40.528C310.706 41.744 309.698 43.728 309.698 46.48C309.698 47.248 309.842 48.448 310.13 50.08C310.354 51.52 310.578 52.24 310.802 52.24C310.866 52.24 310.914 52.224 310.946 52.192C310.466 48.704 310.226 46.816 310.226 46.528C310.226 45.472 310.53 44.448 311.138 43.456C311.778 42.432 312.562 41.792 313.49 41.536ZM335.451 54.832C337.051 53.52 338.203 52.432 338.907 51.568C340.091 50.16 340.699 48.72 340.731 47.248C340.795 45.424 340.203 44.016 338.955 43.024C337.931 42.192 336.539 41.776 334.779 41.776C334.619 41.776 334.395 41.728 334.107 41.632C333.819 41.536 333.611 41.472 333.483 41.44C333.227 41.408 333.067 41.424 333.003 41.488C332.939 41.552 332.939 41.712 333.003 41.968C331.531 42.32 330.219 42.976 329.067 43.936C327.627 42.688 326.907 41.04 326.907 38.992C326.907 37.552 327.563 36.256 328.875 35.104C330.059 35.776 331.291 36.112 332.571 36.112C334.811 36.112 336.779 34.816 338.475 32.224C338.571 31.744 338.395 31.456 337.947 31.36C336.827 32.384 335.867 32.896 335.067 32.896C335.003 32.896 334.379 32.656 333.195 32.176C332.395 31.856 331.851 31.664 331.563 31.6C330.859 32.72 329.819 33.6 328.443 34.24C324.731 35.936 322.875 38.752 322.875 42.688C322.875 43.968 323.563 45.104 324.939 46.096C326.347 47.12 327.099 47.632 327.195 47.632C327.323 47.632 327.435 47.584 327.531 47.488C327.595 47.52 327.803 47.536 328.155 47.536C328.667 47.536 329.211 47.456 329.787 47.296C330.363 47.136 330.907 46.912 331.419 46.624C331.931 46.336 332.395 46 332.811 45.616C333.227 45.232 333.563 44.816 333.819 44.368C335.419 45.584 336.219 47.552 336.219 50.272C336.219 51.968 335.835 53.216 335.067 54.016C334.523 53.44 333.675 52.928 332.523 52.48C331.371 52.032 330.395 51.808 329.595 51.808C328.795 51.808 328.075 51.968 327.435 52.288C325.899 52.992 324.203 54.592 322.347 57.088C322.411 57.44 322.667 57.616 323.115 57.616C323.979 56.272 325.211 55.6 326.811 55.6C329.339 55.6 331.211 56.272 332.427 57.616C332.683 57.872 333.019 57.952 333.435 57.856C333.659 56.768 334.331 55.76 335.451 54.832ZM331.131 44.8C330.587 44.8 330.075 44.656 329.595 44.368C330.235 43.824 330.907 43.552 331.611 43.552C332.155 43.552 332.539 43.616 332.763 43.744C332.379 44.448 331.835 44.8 331.131 44.8ZM331.899 37.6C332.219 37.472 332.379 37.328 332.379 37.168C332.315 36.72 331.739 36.496 330.651 36.496C330.363 36.496 330.011 36.624 329.595 36.88C328.667 37.52 328.139 38.528 328.011 39.904C327.947 40.64 328.107 41.424 328.491 42.256C328.523 42.352 328.603 42.4 328.731 42.4C328.795 42.4 328.859 42.352 328.923 42.256C328.667 41.424 328.539 40.752 328.539 40.24C328.539 39.632 328.683 39.104 328.971 38.656C329.483 37.792 330.059 37.36 330.699 37.36C331.243 37.36 331.643 37.44 331.899 37.6ZM335.451 52.816C335.483 52.656 335.499 52.416 335.499 52.096C335.499 51.04 335.195 50.064 334.587 49.168C333.819 48.08 332.923 47.536 331.899 47.536C331.547 47.536 331.243 47.616 330.987 47.776C330.507 48.128 330.267 48.432 330.267 48.688C330.267 49.008 330.539 49.136 331.083 49.072C331.243 48.72 331.643 48.544 332.283 48.544C333.275 48.544 334.011 49.024 334.491 49.984C334.907 50.656 335.083 51.568 335.019 52.72C335.083 52.88 335.147 52.96 335.211 52.96C335.275 52.96 335.355 52.912 335.451 52.816ZM350.105 31.36C349.209 32.256 348.665 33.344 348.473 34.624C347.641 35.328 346.841 36.112 346.073 36.976C345.305 37.84 344.601 38.8 343.961 39.856C342.553 42.128 341.833 44.24 341.801 46.192C341.737 49.712 343.033 52.624 345.689 54.928C348.025 56.976 350.585 58 353.369 58C353.689 55.408 354.345 53.904 355.337 53.488C355.273 53.008 355.145 52.736 354.953 52.672C354.729 52.608 354.521 52.64 354.329 52.768C353.497 53.248 353.065 53.488 353.033 53.488C351.145 53.488 349.337 52.416 347.609 50.272C345.913 48.224 345.065 46.192 345.065 44.176C345.065 40.272 346.185 37.408 348.425 35.584V35.872C348.521 35.936 348.649 36.032 348.809 36.16C349.001 36.288 349.225 36.432 349.481 36.592C351.913 38.16 353.129 40.128 353.129 42.496C353.129 44.192 351.913 45.776 349.481 47.248L349.865 47.968C351.753 46.88 353.113 45.824 353.945 44.8C355.257 43.2 355.913 41.264 355.913 38.992C355.913 37.392 355.305 35.744 354.089 34.048C352.905 32.384 351.577 31.488 350.105 31.36ZM350.537 40.192C349.257 40.128 348.297 40.736 347.657 42.016C347.113 43.04 346.841 44.24 346.841 45.616C346.841 47.056 347.193 48.32 347.897 49.408C348.409 50.272 349.305 51.248 350.585 52.336C350.841 52.336 350.953 52.192 350.921 51.904C349.993 51.296 349.209 50.448 348.569 49.36C347.929 48.272 347.609 47.2 347.609 46.144C347.609 45.92 347.609 45.68 347.609 45.424C347.641 45.168 347.673 44.912 347.705 44.656C347.961 42.64 348.745 41.552 350.057 41.392C350.441 41.104 350.633 40.816 350.633 40.528C350.633 40.432 350.601 40.32 350.537 40.192ZM374.366 32.464C374.366 31.76 373.822 31.424 372.734 31.456C372.446 31.872 372.158 32.288 371.87 32.704C371.582 33.12 371.294 33.552 371.006 34C370.654 34.448 370.302 34.848 369.95 35.2C369.598 35.552 369.214 35.84 368.798 36.064C368.67 36.288 368.606 36.528 368.606 36.784C368.606 37.04 368.702 37.168 368.894 37.168C369.054 37.168 369.23 37.12 369.422 37.024C369.614 36.928 369.758 36.88 369.854 36.88C369.95 36.88 370.03 36.896 370.094 36.928V52.144C369.07 53.936 367.774 54.832 366.206 54.832C365.758 54.832 364.99 54.704 363.902 54.448C362.878 54.192 362.126 54.064 361.646 54.064C361.23 54.064 360.91 54.128 360.686 54.256C363.79 50.192 365.374 45.648 365.438 40.624C365.502 37.84 364.734 35.456 363.134 33.472C362.078 32.128 361.23 31.456 360.59 31.456C360.206 31.456 359.854 31.664 359.534 32.08C359.182 32.528 358.75 33.264 358.238 34.288C357.982 34.8 357.742 35.248 357.518 35.632C357.294 35.984 357.086 36.272 356.894 36.496C356.894 36.816 357.07 36.976 357.422 36.976C357.486 36.944 357.646 36.816 357.902 36.592C358.158 36.368 358.334 36.256 358.43 36.256C359.166 36.256 359.774 36.56 360.254 37.168C361.534 38.768 362.174 41.296 362.174 44.752C362.174 46.704 361.918 48.64 361.406 50.56C360.766 52.928 360.03 54.528 359.198 55.36L359.054 55.504C358.99 55.568 358.894 55.648 358.766 55.744C358.67 55.84 358.542 55.952 358.382 56.08C357.646 56.816 357.262 57.312 357.23 57.568C357.166 57.76 357.31 57.856 357.662 57.856C358.814 57.344 359.646 57.088 360.158 57.088C360.414 57.088 360.718 57.136 361.07 57.232C361.454 57.296 361.838 57.376 362.222 57.472C362.638 57.568 363.054 57.664 363.47 57.76C363.886 57.824 364.27 57.856 364.622 57.856C365.294 57.856 365.902 57.712 366.446 57.424C367.118 57.104 367.79 56.56 368.462 55.792C368.494 55.76 368.638 55.584 368.894 55.264C369.182 54.912 369.582 54.4 370.094 53.728V57.136C370.094 57.776 370.574 58.064 371.534 58C373.134 55.664 374.51 54.176 375.662 53.536C375.726 53.408 375.79 53.168 375.854 52.816C375.854 52.528 375.758 52.4 375.566 52.432L375.134 52.528C375.102 52.112 375.07 51.728 375.038 51.376C375.038 51.024 375.038 50.688 375.038 50.368C375.038 49.376 375.118 48.64 375.278 48.16C375.534 47.424 376.03 46.944 376.766 46.72C376.83 46.528 376.862 46.384 376.862 46.288C376.862 46.16 376.718 46 376.43 45.808C376.174 45.808 375.934 45.856 375.71 45.952C375.166 46.208 374.83 47.168 374.702 48.832C374.67 49.28 374.654 49.824 374.654 50.464C374.654 51.072 374.686 51.776 374.75 52.576L374.366 52.672V32.464ZM368.99 41.536C369.118 41.056 368.862 40.72 368.222 40.528C366.206 41.744 365.198 43.728 365.198 46.48C365.198 47.248 365.342 48.448 365.63 50.08C365.854 51.52 366.078 52.24 366.302 52.24C366.366 52.24 366.414 52.224 366.446 52.192C365.966 48.704 365.726 46.816 365.726 46.528C365.726 45.472 366.03 44.448 366.638 43.456C367.278 42.432 368.062 41.792 368.99 41.536ZM383.655 38.416C383.943 37.2 384.199 36.464 384.423 36.208C384.647 35.92 385.031 35.68 385.575 35.488C385.735 35.424 385.911 35.376 386.103 35.344C386.327 35.28 386.599 35.216 386.919 35.152C387.495 35.024 388.023 35.264 388.503 35.872C389.015 36.416 389.271 37.008 389.271 37.648V56.944C389.271 57.648 389.767 58 390.759 58C391.847 56.368 392.439 55.504 392.535 55.408C393.303 54.448 394.071 53.76 394.839 53.344C394.967 53.184 395.047 52.944 395.079 52.624C395.079 52.336 394.967 52.208 394.743 52.24L394.311 52.336C394.471 50.128 394.615 48.368 394.743 47.056C394.871 45.328 395.111 44.096 395.463 43.36C395.943 42.336 396.887 41.552 398.295 41.008C398.327 40.88 398.343 40.736 398.343 40.576C398.343 40.288 398.183 40.096 397.863 40C396.391 40 395.351 41.216 394.743 43.648C394.423 44.768 394.199 46.048 394.071 47.488C393.943 48.928 393.895 50.56 393.927 52.384L393.543 52.48V38.272C393.543 37.216 393.879 36.352 394.551 35.68C395.223 34.976 396.087 34.624 397.143 34.624C397.687 34.624 398.519 34.752 399.639 35.008C400.663 35.232 401.511 35.344 402.183 35.344C399.175 39.6 397.671 43.52 397.671 47.104C397.671 49.6 398.151 51.872 399.111 53.92C400.263 56.512 401.863 57.872 403.911 58C404.327 57.648 404.775 56.832 405.255 55.552C405.671 54.464 406.247 53.696 406.983 53.248C407.079 53.024 407.127 52.832 407.127 52.672C407.127 52.512 407.047 52.432 406.887 52.432C406.791 52.432 406.199 52.704 405.111 53.248C403.383 52.32 402.215 50.848 401.607 48.832C401.159 47.328 400.935 45.392 400.935 43.024C400.935 40.56 401.335 38.464 402.135 36.736C402.871 35.136 404.151 33.424 405.975 31.6C405.911 31.216 405.783 31.056 405.591 31.12C405.399 31.152 405.175 31.28 404.919 31.504C404.087 32.112 403.607 32.416 403.479 32.416C403.159 32.416 402.807 32.368 402.423 32.272C402.039 32.144 401.639 32.032 401.223 31.936C400.839 31.808 400.455 31.696 400.071 31.6C399.687 31.472 399.351 31.408 399.063 31.408C397.751 31.408 396.647 31.76 395.751 32.464C395.111 32.944 394.343 33.856 393.447 35.2L393.351 35.296C393.159 34.4 392.871 33.584 392.487 32.848C391.943 31.888 391.335 31.408 390.663 31.408C389.479 31.6 388.647 32.288 388.167 33.472C385.767 33.984 384.263 34.72 383.655 35.68V32.464C383.655 31.856 383.175 31.568 382.215 31.6C380.615 33.936 379.239 35.424 378.087 36.064C377.927 36.352 377.863 36.592 377.895 36.784C377.895 37.04 377.991 37.168 378.183 37.168C378.343 37.168 378.519 37.12 378.711 37.024C378.903 36.928 379.047 36.88 379.143 36.88C379.239 36.88 379.319 36.896 379.383 36.928V57.136C379.383 57.776 379.863 58.064 380.823 58C382.487 55.664 383.863 54.176 384.951 53.536C385.079 53.376 385.159 53.136 385.191 52.816C385.191 52.528 385.079 52.4 384.855 52.432L384.423 52.528C384.583 50.32 384.727 48.56 384.855 47.248C384.983 45.52 385.223 44.288 385.575 43.552C386.055 42.528 386.999 41.744 388.407 41.2C388.439 41.072 388.455 40.928 388.455 40.768C388.455 40.48 388.295 40.288 387.975 40.192C386.503 40.192 385.463 41.408 384.855 43.84C384.535 44.96 384.311 46.24 384.183 47.68C384.055 49.12 384.007 50.752 384.039 52.576L383.655 52.672V38.416ZM401.943 48.064C401.943 48.832 402.615 50.144 403.959 52C403.991 51.968 404.007 51.904 404.007 51.808C404.007 51.744 403.815 51.296 403.431 50.464C402.919 49.472 402.663 48.672 402.663 48.064C402.663 47.904 402.759 47.648 402.951 47.296C403.431 46.592 403.703 46.064 403.767 45.712C403.799 45.52 403.655 45.424 403.335 45.424C402.407 46.16 401.943 47.04 401.943 48.064ZM421.092 54.832C422.692 53.52 423.844 52.432 424.548 51.568C425.732 50.16 426.34 48.72 426.372 47.248C426.436 45.424 425.844 44.016 424.596 43.024C423.572 42.192 422.18 41.776 420.42 41.776C420.26 41.776 420.036 41.728 419.748 41.632C419.46 41.536 419.252 41.472 419.124 41.44C418.868 41.408 418.708 41.424 418.644 41.488C418.58 41.552 418.58 41.712 418.644 41.968C417.172 42.32 415.86 42.976 414.708 43.936C413.268 42.688 412.548 41.04 412.548 38.992C412.548 37.552 413.204 36.256 414.516 35.104C415.7 35.776 416.932 36.112 418.212 36.112C420.452 36.112 422.42 34.816 424.116 32.224C424.212 31.744 424.036 31.456 423.588 31.36C422.468 32.384 421.508 32.896 420.708 32.896C420.644 32.896 420.02 32.656 418.836 32.176C418.036 31.856 417.492 31.664 417.204 31.6C416.5 32.72 415.46 33.6 414.084 34.24C410.372 35.936 408.516 38.752 408.516 42.688C408.516 43.968 409.204 45.104 410.58 46.096C411.988 47.12 412.74 47.632 412.836 47.632C412.964 47.632 413.076 47.584 413.172 47.488C413.236 47.52 413.444 47.536 413.796 47.536C414.308 47.536 414.852 47.456 415.428 47.296C416.004 47.136 416.548 46.912 417.06 46.624C417.572 46.336 418.036 46 418.452 45.616C418.868 45.232 419.204 44.816 419.46 44.368C421.06 45.584 421.86 47.552 421.86 50.272C421.86 51.968 421.476 53.216 420.708 54.016C420.164 53.44 419.316 52.928 418.164 52.48C417.012 52.032 416.036 51.808 415.236 51.808C414.436 51.808 413.716 51.968 413.076 52.288C411.54 52.992 409.844 54.592 407.988 57.088C408.052 57.44 408.308 57.616 408.756 57.616C409.62 56.272 410.852 55.6 412.452 55.6C414.98 55.6 416.852 56.272 418.068 57.616C418.324 57.872 418.66 57.952 419.076 57.856C419.3 56.768 419.972 55.76 421.092 54.832ZM416.772 44.8C416.228 44.8 415.716 44.656 415.236 44.368C415.876 43.824 416.548 43.552 417.252 43.552C417.796 43.552 418.18 43.616 418.404 43.744C418.02 44.448 417.476 44.8 416.772 44.8ZM417.54 37.6C417.86 37.472 418.02 37.328 418.02 37.168C417.956 36.72 417.38 36.496 416.292 36.496C416.004 36.496 415.652 36.624 415.236 36.88C414.308 37.52 413.78 38.528 413.652 39.904C413.588 40.64 413.748 41.424 414.132 42.256C414.164 42.352 414.244 42.4 414.372 42.4C414.436 42.4 414.5 42.352 414.564 42.256C414.308 41.424 414.18 40.752 414.18 40.24C414.18 39.632 414.324 39.104 414.612 38.656C415.124 37.792 415.7 37.36 416.34 37.36C416.884 37.36 417.284 37.44 417.54 37.6ZM421.092 52.816C421.124 52.656 421.14 52.416 421.14 52.096C421.14 51.04 420.836 50.064 420.228 49.168C419.46 48.08 418.564 47.536 417.54 47.536C417.188 47.536 416.884 47.616 416.628 47.776C416.148 48.128 415.908 48.432 415.908 48.688C415.908 49.008 416.18 49.136 416.724 49.072C416.884 48.72 417.284 48.544 417.924 48.544C418.916 48.544 419.652 49.024 420.132 49.984C420.548 50.656 420.724 51.568 420.66 52.72C420.724 52.88 420.788 52.96 420.852 52.96C420.916 52.96 420.996 52.912 421.092 52.816ZM440.594 42.88C440.594 40.544 441.01 38.448 441.842 36.592C442.642 34.864 443.906 33.152 445.634 31.456C445.602 31.136 445.426 30.976 445.106 30.976C444.818 31.04 444.626 31.184 444.53 31.408C443.954 31.792 443.554 31.984 443.33 31.984C442.658 31.984 441.826 31.824 440.834 31.504C439.778 31.152 438.978 30.976 438.434 30.976C438.082 30.976 437.762 30.992 437.474 31.024C437.186 31.024 436.93 31.04 436.706 31.072C435.938 31.232 435.218 31.568 434.546 32.08C434.45 32.144 434.258 32.32 433.97 32.608C433.682 32.896 433.282 33.28 432.77 33.76C431.298 35.2 430.034 37.28 428.978 40C427.986 42.464 427.49 44.656 427.49 46.576C427.49 49.264 428.306 51.824 429.938 54.256C431.57 56.656 433.25 57.856 434.978 57.856C435.266 57.44 435.506 56.96 435.698 56.416C436.402 54.464 437.282 53.264 438.338 52.816L438.53 53.2L438.674 53.632C439.026 54.56 439.442 55.488 439.922 56.416C441.874 60.128 442.85 62.96 442.85 64.912C442.85 66.576 442.354 67.92 441.362 68.944C440.402 70 439.106 70.528 437.474 70.528C436.578 70.528 435.826 70.368 435.218 70.048C434.834 69.824 434.242 69.344 433.442 68.608C431.554 66.848 429.298 65.472 426.674 64.48C426.546 64.576 426.482 64.72 426.482 64.912C426.482 65.04 426.498 65.152 426.53 65.248C428.674 66.976 430.258 68.32 431.282 69.28C433.17 70.784 434.93 71.536 436.562 71.536C439.474 71.536 441.874 70.304 443.762 67.84C445.49 65.6 446.354 63.072 446.354 60.256C446.354 58.944 445.922 57.488 445.058 55.888C444.674 55.248 444.29 54.592 443.906 53.92C443.522 53.248 443.122 52.576 442.706 51.904C441.298 49.28 440.594 46.272 440.594 42.88ZM437.33 46.96C437.33 48.656 437.602 50.4 438.146 52.192C437.41 52.64 436.754 52.864 436.178 52.864C435.602 52.864 434.962 52.592 434.258 52.048C433.042 51.024 432.098 49.616 431.426 47.824C430.818 46.224 430.514 44.544 430.514 42.784C430.514 40.576 430.754 38.752 431.234 37.312C431.906 35.264 433.09 34.24 434.786 34.24C435.17 34.24 435.65 34.272 436.226 34.336C436.802 34.4 437.474 34.496 438.242 34.624C439.042 34.752 439.73 34.848 440.306 34.912C440.914 34.976 441.426 34.992 441.842 34.96C438.834 39.216 437.33 43.216 437.33 46.96ZM441.602 47.92C441.602 48.688 442.274 50 443.618 51.856C443.65 51.824 443.666 51.76 443.666 51.664C443.666 51.6 443.474 51.152 443.09 50.32C442.578 49.328 442.322 48.528 442.322 47.92C442.322 47.76 442.418 47.504 442.61 47.152C443.09 46.448 443.362 45.92 443.426 45.568C443.458 45.376 443.314 45.28 442.994 45.28C442.066 46.112 441.602 46.992 441.602 47.92ZM435.026 51.568C433.202 49.744 432.29 47.936 432.29 46.144C432.29 44.768 432.546 43.616 433.058 42.688C433.666 41.472 434.578 40.832 435.794 40.768C435.698 40.352 435.426 40.016 434.978 39.76C434.018 40.144 433.234 40.816 432.626 41.776C432.05 42.736 431.762 43.76 431.762 44.848C431.762 47.696 432.77 50.032 434.786 51.856C434.914 51.728 434.994 51.632 435.026 51.568ZM433.778 64C434.418 62.496 435.522 61.744 437.09 61.744C437.858 61.744 438.658 62.112 439.49 62.848C440.322 63.616 440.738 64.416 440.738 65.248C440.738 67.104 440.018 68.368 438.578 69.04C438.642 69.296 438.738 69.424 438.866 69.424C439.122 69.424 439.474 69.104 439.922 68.464C440.69 67.376 441.074 66.512 441.074 65.872C441.074 64.432 440.674 63.216 439.874 62.224C439.074 61.232 437.986 60.736 436.61 60.736C436.098 60.736 435.586 60.88 435.074 61.168C433.89 61.776 433.218 62.48 433.058 63.28C432.994 63.632 433.234 63.872 433.778 64ZM457.561 43.024C457.561 40.56 457.961 38.464 458.761 36.736C459.497 35.136 460.777 33.424 462.601 31.6C462.569 31.28 462.393 31.12 462.073 31.12C461.785 31.184 461.593 31.328 461.497 31.552C460.921 31.936 460.521 32.128 460.297 32.128C459.625 32.128 458.793 31.968 457.801 31.648C456.745 31.296 455.945 31.12 455.401 31.12C455.049 31.12 454.729 31.136 454.441 31.168C454.153 31.168 453.897 31.184 453.673 31.216C452.905 31.376 452.185 31.712 451.513 32.224C451.417 32.288 451.225 32.464 450.937 32.752C450.649 33.04 450.249 33.424 449.737 33.904C448.265 35.312 447.001 37.376 445.945 40.096C444.953 42.496 444.457 44.704 444.457 46.72C444.457 49.408 445.273 51.968 446.905 54.4C448.537 56.8 450.217 58 451.945 58C452.233 57.584 452.473 57.104 452.665 56.56C453.369 54.608 454.249 53.408 455.305 52.96C456.489 56.32 458.233 58 460.537 58C460.953 57.648 461.401 56.832 461.881 55.552C462.297 54.464 462.873 53.696 463.609 53.248C463.705 53.024 463.753 52.832 463.753 52.672C463.753 52.512 463.673 52.432 463.513 52.432C463.417 52.432 462.825 52.704 461.737 53.248C460.009 52.32 458.841 50.848 458.233 48.832C457.785 47.328 457.561 45.392 457.561 43.024ZM454.297 47.104C454.297 48.8 454.569 50.544 455.113 52.336C454.377 52.784 453.721 53.008 453.145 53.008C452.569 53.008 451.929 52.736 451.225 52.192C450.009 51.168 449.065 49.76 448.393 47.968C447.785 46.368 447.481 44.688 447.481 42.928C447.481 40.72 447.721 38.896 448.201 37.456C448.873 35.408 450.057 34.384 451.753 34.384C452.137 34.384 452.617 34.416 453.193 34.48C453.769 34.544 454.441 34.64 455.209 34.768C456.009 34.896 456.697 34.992 457.273 35.056C457.881 35.12 458.393 35.136 458.809 35.104C455.801 39.36 454.297 43.36 454.297 47.104ZM458.569 48.064C458.569 48.832 459.241 50.144 460.585 52C460.617 51.968 460.633 51.904 460.633 51.808C460.633 51.744 460.441 51.296 460.057 50.464C459.545 49.472 459.289 48.672 459.289 48.064C459.289 47.904 459.385 47.648 459.577 47.296C460.057 46.592 460.329 46.064 460.393 45.712C460.425 45.52 460.281 45.424 459.961 45.424C459.033 46.16 458.569 47.04 458.569 48.064ZM451.993 51.712C450.169 49.888 449.257 48.08 449.257 46.288C449.257 44.912 449.513 43.76 450.025 42.832C450.665 41.584 451.577 40.944 452.761 40.912C452.665 40.496 452.393 40.16 451.945 39.904C450.985 40.288 450.201 40.96 449.593 41.92C449.017 42.88 448.729 43.904 448.729 44.992C448.729 47.84 449.737 50.176 451.753 52C451.881 51.872 451.961 51.776 451.993 51.712ZM477.717 54.832C479.317 53.52 480.469 52.432 481.173 51.568C482.357 50.16 482.965 48.72 482.997 47.248C483.061 45.424 482.469 44.016 481.221 43.024C480.197 42.192 478.805 41.776 477.045 41.776C476.885 41.776 476.661 41.728 476.373 41.632C476.085 41.536 475.877 41.472 475.749 41.44C475.493 41.408 475.333 41.424 475.269 41.488C475.205 41.552 475.205 41.712 475.269 41.968C473.797 42.32 472.485 42.976 471.333 43.936C469.893 42.688 469.173 41.04 469.173 38.992C469.173 37.552 469.829 36.256 471.141 35.104C472.325 35.776 473.557 36.112 474.837 36.112C477.077 36.112 479.045 34.816 480.741 32.224C480.837 31.744 480.661 31.456 480.213 31.36C479.093 32.384 478.133 32.896 477.333 32.896C477.269 32.896 476.645 32.656 475.461 32.176C474.661 31.856 474.117 31.664 473.829 31.6C473.125 32.72 472.085 33.6 470.709 34.24C466.997 35.936 465.141 38.752 465.141 42.688C465.141 43.968 465.829 45.104 467.205 46.096C468.613 47.12 469.365 47.632 469.461 47.632C469.589 47.632 469.701 47.584 469.797 47.488C469.861 47.52 470.069 47.536 470.421 47.536C470.933 47.536 471.477 47.456 472.053 47.296C472.629 47.136 473.173 46.912 473.685 46.624C474.197 46.336 474.661 46 475.077 45.616C475.493 45.232 475.829 44.816 476.085 44.368C477.685 45.584 478.485 47.552 478.485 50.272C478.485 51.968 478.101 53.216 477.333 54.016C476.789 53.44 475.941 52.928 474.789 52.48C473.637 52.032 472.661 51.808 471.861 51.808C471.061 51.808 470.341 51.968 469.701 52.288C468.165 52.992 466.469 54.592 464.613 57.088C464.677 57.44 464.933 57.616 465.381 57.616C466.245 56.272 467.477 55.6 469.077 55.6C471.605 55.6 473.477 56.272 474.693 57.616C474.949 57.872 475.285 57.952 475.701 57.856C475.925 56.768 476.597 55.76 477.717 54.832ZM473.397 44.8C472.853 44.8 472.341 44.656 471.861 44.368C472.501 43.824 473.173 43.552 473.877 43.552C474.421 43.552 474.805 43.616 475.029 43.744C474.645 44.448 474.101 44.8 473.397 44.8ZM474.165 37.6C474.485 37.472 474.645 37.328 474.645 37.168C474.581 36.72 474.005 36.496 472.917 36.496C472.629 36.496 472.277 36.624 471.861 36.88C470.933 37.52 470.405 38.528 470.277 39.904C470.213 40.64 470.373 41.424 470.757 42.256C470.789 42.352 470.869 42.4 470.997 42.4C471.061 42.4 471.125 42.352 471.189 42.256C470.933 41.424 470.805 40.752 470.805 40.24C470.805 39.632 470.949 39.104 471.237 38.656C471.749 37.792 472.325 37.36 472.965 37.36C473.509 37.36 473.909 37.44 474.165 37.6ZM477.717 52.816C477.749 52.656 477.765 52.416 477.765 52.096C477.765 51.04 477.461 50.064 476.853 49.168C476.085 48.08 475.189 47.536 474.165 47.536C473.813 47.536 473.509 47.616 473.253 47.776C472.773 48.128 472.533 48.432 472.533 48.688C472.533 49.008 472.805 49.136 473.349 49.072C473.509 48.72 473.909 48.544 474.549 48.544C475.541 48.544 476.277 49.024 476.757 49.984C477.173 50.656 477.349 51.568 477.285 52.72C477.349 52.88 477.413 52.96 477.477 52.96C477.541 52.96 477.621 52.912 477.717 52.816ZM483.986 32.752V57.136C483.986 57.776 484.466 58.064 485.426 58C487.09 55.664 488.466 54.176 489.554 53.536C489.682 53.376 489.762 53.136 489.794 52.816C489.794 52.528 489.682 52.4 489.458 52.432L489.026 52.528C489.026 48.368 489.122 45.616 489.314 44.272C489.506 42.8 490.066 41.776 490.994 41.2C491.09 40.784 491.106 40.496 491.042 40.336C491.01 40.24 490.914 40.16 490.754 40.096C489.314 40.096 488.594 42.64 488.594 47.728C488.594 48.496 488.594 49.296 488.594 50.128C488.594 50.928 488.61 51.744 488.642 52.576L488.258 52.672V32.752H488.978C489.106 32.848 489.202 33.168 489.266 33.712L489.506 35.536C489.762 37.52 490.066 38.832 490.418 39.472C490.77 39.472 490.946 39.024 490.946 38.128C490.946 37.936 490.882 37.712 490.754 37.456C490.658 37.168 490.546 36.88 490.418 36.592C490.322 36.304 490.21 36.016 490.082 35.728C489.986 35.44 489.938 35.184 489.938 34.96C489.938 34.608 490.018 34.112 490.178 33.472L490.658 31.888C490.722 31.632 490.77 31.392 490.802 31.168C490.866 30.944 490.93 30.72 490.994 30.496C491.026 30.08 490.962 29.808 490.802 29.68C490.258 30.64 489.41 31.248 488.258 31.504V26.56C488.258 23.552 489.09 21.12 490.754 19.264L490.946 18.352C488.29 19.856 486.722 22.416 486.242 26.032C485.794 24.912 485.202 23.952 484.466 23.152C483.57 22.224 482.61 21.68 481.586 21.52L481.394 21.904C483.122 23.056 483.986 25.04 483.986 27.856V31.552H483.17C482.402 31.584 481.938 31.776 481.778 32.128C481.714 32.32 481.874 32.528 482.258 32.752H483.986ZM494.72 57.136C494.72 57.776 495.2 58.064 496.16 58C497.824 55.664 499.2 54.176 500.288 53.536C500.416 53.312 500.48 53.072 500.48 52.816C500.48 52.56 500.384 52.432 500.192 52.432C500.032 52.432 499.856 52.48 499.664 52.576C499.472 52.672 499.328 52.72 499.232 52.72C499.136 52.72 499.056 52.704 498.992 52.672V38.224C499.504 37.744 499.872 37.36 500.096 37.072C500.736 36.464 501.28 36.16 501.728 36.16C503.232 36.64 504.464 37.584 505.424 38.992C506.416 40.368 506.912 41.872 506.912 43.504C506.912 46.288 505.296 50.16 502.064 55.12C501.136 56.56 500.4 57.648 499.856 58.384C499.344 59.152 499.056 59.616 498.992 59.776C497.744 61.888 497.12 63.552 497.12 64.768C497.088 66.496 497.568 67.952 498.56 69.136C499.552 70.416 500.912 71.056 502.64 71.056C503.408 71.056 504.256 70.912 505.184 70.624C507.104 70.016 508.944 68.544 510.704 66.208C511.408 65.312 511.76 64.656 511.76 64.24C511.76 64.144 511.728 64.064 511.664 64C510.704 64.416 509.856 64.96 509.12 65.632L506.864 67.744C504.976 69.44 503.312 70.288 501.872 70.288C500.528 70.288 499.472 69.824 498.704 68.896C497.968 67.968 497.6 66.832 497.6 65.488C497.6 63.952 498.768 61.712 501.104 58.768C502.544 56.944 503.776 55.36 504.8 54.016C505.856 52.672 506.752 51.552 507.488 50.656C509.792 47.392 510.944 44.592 510.944 42.256C510.944 41.168 510.8 40.016 510.512 38.8C510.064 36.976 509.2 35.376 507.92 34C506.64 32.592 505.088 31.648 503.264 31.168C502.816 31.808 502.448 32.384 502.16 32.896C501.872 33.376 501.648 33.792 501.488 34.144C500.88 35.296 500.048 36.144 498.992 36.688V33.328C498.992 30.48 499.392 27.696 500.192 24.976C501.408 20.784 503.216 18.688 505.616 18.688C507.44 18.688 508.352 19.232 508.352 20.32C508.352 20.544 508.288 20.784 508.16 21.04C508.032 21.264 507.888 21.52 507.728 21.808C507.568 22.064 507.424 22.352 507.296 22.672C507.168 22.96 507.104 23.264 507.104 23.584C507.104 24.992 507.792 25.696 509.168 25.696C509.872 25.696 510.528 25.584 511.136 25.36C511.744 25.104 512.048 24.832 512.048 24.544C512.048 24.48 512 24.368 511.904 24.208C511.296 24.688 510.688 24.944 510.08 24.976C509.6 25.04 509.36 24.896 509.36 24.544C509.36 24.192 509.456 23.776 509.648 23.296C510.32 21.728 510.656 20.944 510.656 20.944C510.656 19.984 510.16 19.216 509.168 18.64C508.336 18.16 507.408 17.92 506.384 17.92C504.368 17.92 502.384 18.8 500.432 20.56C498.416 22.384 497.296 24.176 497.072 25.936C496.624 24.784 496.016 23.776 495.248 22.912C494.288 21.792 493.312 21.168 492.32 21.04L492.128 21.424C493.856 22.576 494.72 24.56 494.72 27.376V57.136ZM499.568 34C499.664 34.096 499.76 34.144 499.856 34.144C499.92 34.144 499.968 34.128 500 34.096C500.128 30.352 500.56 27.472 501.296 25.456C502.16 22.928 503.424 21.664 505.088 21.664C505.28 21.472 505.376 21.296 505.376 21.136C505.376 21.008 505.296 20.864 505.136 20.704C503.504 20.704 502.208 21.664 501.248 23.584C500.16 25.792 499.6 29.264 499.568 34ZM504.272 40.768C504.304 40.448 504.16 40.192 503.84 40C500.672 40 499.264 43.632 499.616 50.896C499.744 51.184 499.824 51.328 499.856 51.328C499.824 51.008 499.808 50.704 499.808 50.416C499.808 50.096 499.808 49.792 499.808 49.504C499.808 49.184 499.808 48.88 499.808 48.592C499.808 48.272 499.824 47.968 499.856 47.68C500.112 43.68 501.584 41.376 504.272 40.768ZM505.376 63.664C505.92 63.504 506.16 63.296 506.096 63.04C506.032 62.752 505.872 62.496 505.616 62.272C504.88 61.6 504.128 61.264 503.36 61.264C501.6 61.264 500.432 62.224 499.856 64.144C499.888 64.24 499.968 64.288 500.096 64.288C500.672 62.944 501.744 62.272 503.312 62.272C504.24 62.272 504.928 62.736 505.376 63.664ZM521.053 31.504C520.605 32.24 520.301 33.024 520.141 33.856C518.285 35.232 516.653 37.136 515.245 39.568C513.741 42.224 512.989 44.672 512.989 46.912C512.989 49.856 513.917 52.4 515.773 54.544C517.501 56.528 519.581 57.68 522.013 58C522.301 57.488 522.589 56.88 522.877 56.176C523.165 55.44 523.677 54.624 524.413 53.728C524.733 53.376 525.037 53.008 525.325 52.624C525.645 52.24 525.965 51.872 526.285 51.52C528.813 48.512 530.077 45.296 530.077 41.872C530.077 39.536 529.085 37.184 527.101 34.816C525.117 32.48 523.101 31.376 521.053 31.504ZM526.813 46.528C526.813 47.552 526.717 48.4 526.525 49.072C526.237 49.968 525.805 50.784 525.229 51.52C524.685 52.256 524.141 52.976 523.597 53.68C521.261 52.976 519.453 51.696 518.173 49.84C516.893 47.984 516.253 45.808 516.253 43.312C516.253 41.648 516.573 40.08 517.213 38.608C517.917 36.976 518.893 36.048 520.141 35.824C522.253 36.56 523.917 37.984 525.133 40.096C526.253 42.08 526.813 44.224 526.813 46.528ZM521.869 41.056C521.997 40.928 522.061 40.784 522.061 40.624C522.061 40.368 521.901 40.176 521.581 40.048C520.397 40.208 519.501 40.832 518.893 41.92C518.317 42.88 518.029 43.984 518.029 45.232C518.029 46.832 518.365 48.208 519.037 49.36C519.261 49.776 519.597 50.256 520.045 50.8C520.493 51.312 521.069 51.92 521.773 52.624C521.933 52.752 522.093 52.816 522.253 52.816C522.413 52.816 522.509 52.752 522.541 52.624C521.837 51.984 521.229 51.408 520.717 50.896C520.237 50.384 519.869 49.904 519.613 49.456C518.877 48.24 518.509 46.88 518.509 45.376C518.509 44.32 518.813 43.392 519.421 42.592C520.061 41.76 520.877 41.248 521.869 41.056ZM530.956 32.464C530.988 32.784 531.004 33.104 531.004 33.424C531.004 33.744 531.004 34.064 531.004 34.384V56.512L531.052 60.592H531.004V68.992C531.004 69.344 530.86 69.52 530.572 69.52C530.412 69.52 530.3 69.488 530.236 69.424C529.788 68.976 529.388 68.752 529.036 68.752C528.684 68.752 528.508 68.976 528.508 69.424C528.508 69.776 528.668 70.08 528.988 70.336C529.308 70.624 529.644 70.768 529.996 70.768C530.444 70.768 530.812 70.576 531.1 70.192C531.388 69.808 531.532 69.392 531.532 68.944V63.376C531.532 61.328 532.364 60.352 534.028 60.448C535.148 60.768 535.916 61.024 536.332 61.216C536.204 60.768 536.092 60.384 535.996 60.064C535.9 59.744 535.82 59.472 535.756 59.248C535.436 58.256 535.276 56.832 535.276 54.976V32.752C535.276 32.688 535.292 32.624 535.324 32.56V32.464H535.996C536.124 32.56 536.22 32.88 536.284 33.424L536.524 35.248C536.78 37.232 537.084 38.544 537.436 39.184C537.788 39.184 537.964 38.736 537.964 37.84C537.964 37.648 537.9 37.424 537.772 37.168C537.676 36.88 537.564 36.592 537.436 36.304C537.34 36.016 537.228 35.728 537.1 35.44C537.004 35.152 536.956 34.896 536.956 34.672C536.956 34.32 537.036 33.824 537.196 33.184L537.676 31.6C537.74 31.344 537.788 31.104 537.82 30.88C537.884 30.656 537.948 30.432 538.012 30.208C538.044 29.792 537.98 29.52 537.82 29.392C537.404 30.256 536.7 30.832 535.708 31.12C536.06 30.224 536.268 29.632 536.332 29.344C535.404 29.632 534.54 29.776 533.74 29.776C533.58 29.776 533.436 29.776 533.308 29.776C533.18 29.776 533.052 29.76 532.924 29.728C532.476 28.992 532.06 28.352 531.676 27.808C531.292 27.232 530.956 26.768 530.668 26.416C529.58 25.008 529.036 23.776 529.036 22.72C529.036 21.376 529.436 20.352 530.236 19.648C531.068 18.912 532.156 18.544 533.5 18.544C534.94 18.544 535.66 18.928 535.66 19.696C535.66 20.048 535.436 20.672 534.988 21.568C534.54 22.464 534.316 23.12 534.316 23.536C534.316 24.72 534.972 25.312 536.284 25.312C536.7 25.312 537.228 25.168 537.868 24.88C538.284 24.688 538.492 24.464 538.492 24.208C538.492 24.112 538.396 23.984 538.204 23.824C537.852 24.304 537.388 24.544 536.812 24.544C536.492 24.544 536.332 24.368 536.332 24.016C536.332 23.6 536.62 23.104 537.196 22.528C537.772 21.952 538.06 21.456 538.06 21.04C538.06 18.864 536.604 17.776 533.692 17.776C532.956 17.776 532.268 17.904 531.628 18.16C530.988 18.416 530.412 18.768 529.9 19.216C529.388 19.664 528.988 20.208 528.7 20.848C528.412 21.456 528.268 22.112 528.268 22.816C528.268 23.456 528.54 24.288 529.084 25.312L530.38 27.616C530.636 28.16 530.78 28.752 530.812 29.392C530.844 30.032 530.876 30.656 530.908 31.264C530.684 31.232 530.412 31.232 530.092 31.264C529.292 31.328 528.876 31.52 528.844 31.84C528.78 32 528.924 32.208 529.276 32.464H530.956ZM538.06 40.912C537.868 40.304 537.532 39.968 537.052 39.904C536.7 40.064 536.46 40.512 536.332 41.248C535.98 42.848 535.788 45.024 535.756 47.776C535.692 49.088 535.692 50.352 535.756 51.568L536.092 51.616C535.9 44.672 536.556 41.104 538.06 40.912Z" fill="#8F1E31"/>
</svg>
